<svg width="1216" height="716" viewBox="0 0 1216 716" fill="none" xmlns="http://www.w3.org/2000/svg">
<g clip-path="url(#clip0_3373_1207)">
<path d="M57.0311 -0.00146484C57.0311 10.2147 48.7535 18.4923 38.5374 18.4923C28.3212 18.4923 20.0436 10.2147 20.0436 -0.00146484H0.00195312C0.00195312 21.2785 17.2574 38.534 38.5374 38.534C59.8174 38.534 77.0728 21.2785 77.0728 -0.00146484H57.0311Z" fill="#FFD7D7"/>
<path d="M57.0311 76.4662C57.0311 66.25 48.7535 57.9724 38.5374 57.9724C28.3212 57.9724 20.0436 66.25 20.0436 76.4662H0.00195312C0.00195312 55.1862 17.2574 37.9308 38.5374 37.9308C59.8174 37.9308 77.0728 55.1862 77.0728 76.4662H57.0311Z" fill="#FFD7D7"/>
</g>
<g clip-path="url(#clip1_3373_1207)">
<path d="M284.001 256.861L280.109 246.416L276.217 256.861L273.387 264.453C272.694 266.318 272.694 268.301 273.387 270.165L276.217 277.757L280.109 288.202L284.001 277.757L286.831 270.165C287.524 268.301 287.524 266.318 286.831 264.453L284.001 256.861Z" fill="#ECEBFF" fill-opacity="0.24"/>
<path d="M254.915 269.163L243.918 267.313L251.016 275.908L256.176 282.151C257.444 283.684 259.161 284.679 261.122 285.011L269.112 286.352L280.109 288.203L273.011 279.608L267.851 273.365C266.584 271.832 264.866 270.837 262.906 270.505L254.915 269.163Z" fill="#ECEBFF" fill-opacity="0.24"/>
<path d="M251.016 300.504L243.918 309.098L254.915 307.248L262.906 305.907C264.874 305.575 266.584 304.587 267.851 303.047L273.011 296.804L280.109 288.209L269.112 290.059L261.122 291.401C259.154 291.732 257.444 292.72 256.176 294.261L251.016 300.504Z" fill="#ECEBFF" fill-opacity="0.24"/>
<path d="M276.217 319.55L280.109 329.995L284.001 319.55L286.831 311.958C287.524 310.093 287.524 308.11 286.831 306.245L284.001 298.653L280.109 288.209L276.217 298.653L273.387 306.245C272.694 308.11 272.694 310.093 273.387 311.958L276.217 319.55Z" fill="#ECEBFF" fill-opacity="0.24"/>
<path d="M305.303 307.248L316.301 309.098L309.203 300.504L304.043 294.26C302.775 292.727 301.058 291.732 299.097 291.4L291.107 290.059L280.109 288.209L287.208 296.803L292.367 303.046C293.635 304.58 295.353 305.575 297.313 305.906L305.303 307.248Z" fill="#ECEBFF" fill-opacity="0.24"/>
<path d="M309.203 275.908L316.301 267.313L305.303 269.163L297.313 270.505C295.345 270.837 293.635 271.824 292.367 273.365L287.208 279.608L280.109 288.203L291.107 286.352L299.097 285.011C301.065 284.679 302.775 283.692 304.043 282.151L309.203 275.908Z" fill="#ECEBFF" fill-opacity="0.24"/>
</g>
<g clip-path="url(#clip2_3373_1207)">
<path d="M255.718 679.823H291.095C291.095 699.357 275.251 715.2 255.718 715.2V679.823C255.718 689.59 251.759 698.442 245.354 704.837C238.959 711.242 230.107 715.2 220.34 715.2C210.573 715.2 201.722 711.242 195.326 704.837C188.921 698.442 184.963 689.59 184.963 679.823V644.446C194.73 644.446 203.581 648.404 209.977 654.809C216.382 661.205 220.34 670.056 220.34 679.823C220.34 660.29 236.184 644.446 255.718 644.446C236.184 644.446 220.34 628.602 220.34 609.068H255.718C275.251 609.068 291.095 624.912 291.095 644.446C291.095 663.979 275.261 679.823 255.718 679.823Z" fill="#ECD6FF"/>
<path d="M220.33 609.068C220.33 628.602 204.487 644.446 184.953 644.446V609.068H220.33Z" fill="#ECD6FF"/>
</g>
<g clip-path="url(#clip3_3373_1207)">
<path d="M816.152 333.146H804.851C804.851 339.385 809.912 344.447 816.152 344.447V333.146C816.152 336.265 817.416 339.093 819.462 341.136C821.505 343.182 824.333 344.447 827.453 344.447C830.573 344.447 833.4 343.182 835.443 341.136C837.489 339.093 838.754 336.265 838.754 333.146V321.844C835.634 321.844 832.806 323.109 830.763 325.155C828.717 327.198 827.453 330.026 827.453 333.146C827.453 326.906 822.392 321.844 816.152 321.844C822.392 321.844 827.453 316.783 827.453 310.543H816.152C809.912 310.543 804.851 315.605 804.851 321.844C804.851 328.084 809.909 333.146 816.152 333.146Z" fill="#ECEBFF" fill-opacity="0.24"/>
<path d="M827.457 310.543C827.457 316.783 832.518 321.844 838.758 321.844V310.543H827.457Z" fill="#ECEBFF" fill-opacity="0.24"/>
</g>
<g clip-path="url(#clip4_3373_1207)">
<path d="M738.142 185.374C737.895 183.447 736.796 177.254 732.446 172.92C727.24 167.733 719.346 167.186 719.346 167.186C719.346 167.186 719.895 175.05 725.105 180.237C729.931 185.044 737.06 185.869 738.078 185.964C738.078 185.967 738.078 185.974 738.078 185.974C738.078 185.974 738.103 185.974 738.142 185.971C738.18 185.971 738.205 185.974 738.205 185.974C738.205 185.974 738.205 185.967 738.205 185.964C739.223 185.869 746.353 185.044 751.178 180.237C756.385 175.05 756.938 167.186 756.938 167.186C756.938 167.186 749.044 167.733 743.838 172.923C739.491 177.254 738.388 183.447 738.142 185.378V185.374Z" fill="white" fill-opacity="0.24"/>
<path d="M738.078 171.584V171.594C738.078 171.594 738.103 171.594 738.142 171.591C738.18 171.591 738.205 171.594 738.205 171.594C738.205 171.594 738.205 171.587 738.205 171.584C739.223 171.489 746.353 170.664 751.178 165.857C756.385 160.67 756.938 152.806 756.938 152.806C756.938 152.806 749.044 153.353 743.838 158.543C739.491 162.874 738.388 169.067 738.142 170.998C737.895 169.071 736.796 162.877 732.446 158.543C727.24 153.353 719.346 152.806 719.346 152.806C719.346 152.806 719.895 160.67 725.105 165.857C729.931 170.664 737.06 171.489 738.078 171.584Z" fill="white" fill-opacity="0.24"/>
</g>
<g clip-path="url(#clip5_3373_1207)">
<path d="M927.4 84.4061C920.906 77.9123 910.38 77.9123 903.894 84.4061C910.387 77.9123 910.387 67.3866 903.894 60.9001C900.643 57.6495 896.397 56.0279 892.144 56.0279V55.9984L892.13 56.0279C887.877 56.0279 883.624 57.6495 880.38 60.9001C873.886 67.3939 873.886 77.9197 880.38 84.4061C873.886 77.9123 863.361 77.9123 856.874 84.4061C850.38 90.8999 850.38 101.426 856.874 107.912C863.368 114.406 873.894 114.406 880.38 107.912L891.555 96.7377L886.66 113.249L881.184 136.261H903.083L897.606 113.249L892.712 96.7377L903.886 107.912C910.38 114.406 920.906 114.406 927.392 107.912C933.886 101.418 933.886 90.8926 927.392 84.4061H927.4Z" fill="#ECD6FF"/>
</g>
<g clip-path="url(#clip6_3373_1207)">
<path d="M1215.4 584.799V610.593H1189.6V636.394H1163.8C1163.8 622.143 1152.25 610.593 1138 610.593V584.799H1163.8V558.998H1189.6C1189.6 573.249 1201.15 584.799 1215.4 584.799Z" fill="#ECD6FF"/>
</g>
<defs>
<clipPath id="clip0_3373_1207">
<rect width="77.0708" height="76.4664" fill="white"/>
</clipPath>
<clipPath id="clip1_3373_1207">
<rect width="72.3829" height="83.5794" fill="white" transform="translate(243.92 246.418)"/>
</clipPath>
<clipPath id="clip2_3373_1207">
<rect width="106.142" height="106.142" fill="white" transform="translate(184.953 609.069)"/>
</clipPath>
<clipPath id="clip3_3373_1207">
<rect width="33.9064" height="33.9064" fill="white" transform="matrix(-1 0 0 1 838.758 310.545)"/>
</clipPath>
<clipPath id="clip4_3373_1207">
<rect width="37.5919" height="33.1693" fill="white" transform="translate(719.346 152.806)"/>
</clipPath>
<clipPath id="clip5_3373_1207">
<rect width="80.2625" height="80.2625" fill="white" transform="translate(852 56)"/>
</clipPath>
<clipPath id="clip6_3373_1207">
<rect width="77.3951" height="77.3951" fill="white" transform="translate(1138 559)"/>
</clipPath>
</defs>
</svg>
