<svg width="19" height="19" viewBox="0 0 19 19" fill="none" xmlns="http://www.w3.org/2000/svg">
<path d="M12.3641 12.0154C11.7804 12.5375 11.0514 13.1871 9.72969 13.1871H8.93932C7.98286 13.1871 7.11291 12.8367 6.49022 12.2016C5.88195 11.581 5.54711 10.7317 5.54711 9.80965V8.71971C5.54711 7.7977 5.88195 6.94835 6.49022 6.32776C7.11291 5.69263 7.98286 5.34278 8.93932 5.34278H9.72969C11.053 5.34278 11.7804 5.9919 12.3641 6.51399C12.9702 7.05223 13.4931 7.52266 14.8874 7.52266C15.0957 7.52261 15.3036 7.50621 15.5093 7.47362C15.516 7.47255 15.5201 7.46552 15.5176 7.45915C15.4341 7.25011 15.3361 7.04723 15.2244 6.85201L14.2925 5.2249C13.8723 4.4914 13.2679 3.88231 12.54 3.45885C11.8122 3.03538 10.9866 2.81246 10.1462 2.8125H8.28192C7.44153 2.81246 6.61594 3.03538 5.88812 3.45885C5.1603 3.88231 4.55589 4.4914 4.13565 5.2249L3.20376 6.85201C2.78366 7.58559 2.5625 8.41768 2.5625 9.26468C2.5625 10.1117 2.78366 10.9438 3.20376 11.6773L4.13565 13.3045C4.55589 14.038 5.1603 14.647 5.88812 15.0705C6.61594 15.494 7.44153 15.7169 8.28192 15.7169H10.1462C10.9866 15.7169 11.8122 15.494 12.54 15.0705C13.2679 14.647 13.8723 14.038 14.2925 13.3045L15.2244 11.68C15.3361 11.4848 15.4341 11.2819 15.5176 11.0729C15.5201 11.0668 15.5163 11.06 15.5098 11.059C15.304 11.0252 15.0959 11.0079 14.8874 11.0072C13.4931 11.0072 12.9702 11.475 12.3641 12.0159" fill="white"/>
<path d="M9.72997 6.33008H8.93959C7.4838 6.33008 6.52734 7.37804 6.52734 8.71934V9.80928C6.52734 11.1506 7.4838 12.1985 8.93959 12.1985H9.72997C11.8512 12.1985 11.6845 10.0187 14.8877 10.0187C14.91 10.0186 14.9324 10.0188 14.9547 10.019C15.4184 10.0249 15.8653 9.72771 15.8653 9.26393C15.8652 8.80044 15.4188 8.50322 14.9554 8.50951C14.9328 8.50981 14.9103 8.50996 14.8877 8.50996C11.6835 8.50996 11.8512 6.33008 9.72997 6.33008Z" fill="white"/>
<path d="M17.6333 10.8997C17.0919 10.5 16.4681 10.2285 15.8084 10.1053C15.8007 10.1039 15.7936 10.1098 15.7936 10.1176C15.7936 10.1183 15.7935 10.1191 15.7934 10.1198C15.7897 10.1406 15.7858 10.1614 15.7818 10.1821C15.6936 10.6418 15.9726 11.1254 16.4005 11.315C16.6234 11.4138 16.8362 11.5361 17.0352 11.6803C17.0429 11.686 17.0462 11.6948 17.0432 11.7038C16.464 13.5942 15.2312 15.2125 13.5687 16.2647C11.9063 17.3169 9.92457 17.7333 7.98349 17.438C6.04242 17.1428 4.2708 16.1557 2.99045 14.6559C1.71011 13.1562 1.00598 11.2433 1.00598 9.26479C1.00598 7.28628 1.71011 5.3734 2.99045 3.87365C4.2708 2.37389 6.04242 1.38674 7.98349 1.09153C9.92457 0.796318 11.9063 1.21263 13.5687 2.26483C15.2305 3.31659 16.4629 4.93396 17.0425 6.82333C17.043 6.82493 17.0432 6.82653 17.0434 6.82818C17.0446 6.83561 17.0433 6.84335 17.0372 6.84777C16.8324 6.99644 16.613 7.1218 16.383 7.22218C15.963 7.40546 15.6897 7.87842 15.778 8.32807C15.7833 8.35533 15.7884 8.38263 15.7933 8.40999C15.7935 8.41093 15.7935 8.41188 15.7935 8.41284C15.7932 8.42008 15.7999 8.42532 15.807 8.424C16.4672 8.30109 17.0915 8.02967 17.6333 7.62988C18.1578 7.23857 18.0563 6.79668 17.9767 6.53509C17.3283 4.41555 15.947 2.60079 14.0838 1.42056C12.2205 0.240338 9.99902 -0.227021 7.82292 0.103412C5.64681 0.433846 3.66053 1.54014 2.22501 3.22127C0.78949 4.9024 0 7.04679 0 9.26479C0 11.4828 0.78949 13.6272 2.22501 15.3083C3.66053 16.9894 5.64681 18.0957 7.82292 18.4262C9.99902 18.7566 12.2205 18.2892 14.0838 17.109C15.947 15.9288 17.3283 14.114 17.9767 11.9945C18.0563 11.7329 18.1578 11.291 17.6333 10.8997Z" fill="white"/>
<path d="M15.7195 8.07813C15.6288 7.71726 15.2612 7.52395 14.8891 7.52515C13.4948 7.52515 12.9719 7.05741 12.3663 6.51648C11.7821 5.99438 11.0548 5.34473 9.73141 5.34473H8.94103C7.98404 5.34473 7.11463 5.69512 6.49194 6.33025C5.88367 6.95084 5.54883 7.80019 5.54883 8.7222V9.81214C5.54883 10.7341 5.88367 11.5835 6.49194 12.2041C7.11463 12.8392 7.98404 13.1891 8.94103 13.1891H9.73141C11.0548 13.1891 11.7821 12.5399 12.3663 12.0179C12.9719 11.4796 13.4948 11.0092 14.8891 11.0092C15.2617 11.0093 15.6291 10.8152 15.7199 10.4539C15.7475 10.3439 15.7713 10.2329 15.7911 10.1211C15.7917 10.1116 15.7846 10.1037 15.7752 10.102C15.482 10.0482 15.1845 10.0213 14.8865 10.0215C11.6822 10.0215 11.8499 12.2019 9.72874 12.2019H8.93836C7.48258 12.2019 6.52612 11.1534 6.52612 9.81214V8.72004C6.52612 7.37874 7.48258 6.33079 8.93836 6.33079H9.72874C11.8499 6.33079 11.6833 8.51013 14.8865 8.51013C15.1854 8.51064 15.4837 8.48355 15.7777 8.4292C15.7855 8.42776 15.7911 8.42107 15.7911 8.41317C15.7911 8.41221 15.791 8.41115 15.7909 8.4102C15.7709 8.29864 15.7471 8.18788 15.7195 8.07813Z" fill="#0AE8F0"/>
<path d="M15.7195 8.07813C15.6288 7.71726 15.2612 7.52395 14.8891 7.52515C13.4948 7.52515 12.9719 7.05741 12.3663 6.51648C11.7821 5.99438 11.0548 5.34473 9.73141 5.34473H8.94103C7.98404 5.34473 7.11463 5.69512 6.49194 6.33025C5.88367 6.95084 5.54883 7.80019 5.54883 8.7222V9.81214C5.54883 10.7341 5.88367 11.5835 6.49194 12.2041C7.11463 12.8392 7.98404 13.1891 8.94103 13.1891H9.73141C11.0548 13.1891 11.7821 12.5399 12.3663 12.0179C12.9719 11.4796 13.4948 11.0092 14.8891 11.0092C15.2617 11.0093 15.6291 10.8152 15.7199 10.4539C15.7475 10.3439 15.7713 10.2329 15.7911 10.1211C15.7917 10.1116 15.7846 10.1037 15.7752 10.102C15.482 10.0482 15.1845 10.0213 14.8865 10.0215C11.6822 10.0215 11.8499 12.2019 9.72874 12.2019H8.93836C7.48258 12.2019 6.52612 11.1534 6.52612 9.81214V8.72004C6.52612 7.37874 7.48258 6.33079 8.93836 6.33079H9.72874C11.8499 6.33079 11.6833 8.51013 14.8865 8.51013C15.1854 8.51064 15.4837 8.48355 15.7777 8.4292C15.7855 8.42776 15.7911 8.42107 15.7911 8.41317C15.7911 8.41221 15.791 8.41115 15.7909 8.4102C15.7709 8.29864 15.7471 8.18788 15.7195 8.07813Z" fill="#0AE8F0"/>
</svg>
