<svg width="84" height="82" viewBox="0 0 84 82" fill="none" xmlns="http://www.w3.org/2000/svg">
<path fill-rule="evenodd" clip-rule="evenodd" d="M60.3061 9.4725C65.9504 3.55017 72.8199 -1.67432 78.126 0.504949C87.0355 4.16423 82.4864 27.7579 80.551 36.167C81.2509 38.9326 81.6213 41.7247 81.6213 44.4738C81.6213 63.5241 63.8321 81.4153 41.888 81.4153C19.944 81.4153 2.15477 63.5241 2.15477 44.4738C2.15477 41.9567 2.46533 39.4035 3.05501 36.8676C1.23498 29.1607 -3.85449 4.27167 5.31665 0.504949C10.6603 -1.68979 17.5898 3.62468 23.2565 9.59866C28.8133 6.29206 35.1551 4.30386 41.888 4.30386C48.5349 4.30386 54.8006 6.24155 60.3061 9.4725Z" fill="#807D8A"/>
<path fill-rule="evenodd" clip-rule="evenodd" d="M3.72333 53.9475C3.70841 54.1308 3.73001 54.3162 3.78725 54.491C8.33254 68.3671 21.8994 79.8025 38.3445 81.2583C38.7028 81.29 39.0612 81.1821 39.3385 80.9531C39.9169 80.4755 40.4771 79.9662 41.0174 79.4271C41.6315 78.8145 42.6412 78.8145 43.2553 79.4271C43.779 79.9496 44.3213 80.4441 44.8809 80.9089C45.1628 81.1431 45.5289 81.2516 45.8935 81.2151C62.6285 79.5399 76.3036 67.535 80.3807 53.2239C80.4306 53.0487 80.4452 52.8644 80.4239 52.6835C78.7926 38.77 69.2048 28.0879 57.6211 28.0879C52.1886 28.0879 47.1951 30.4373 43.2554 34.3676C42.6414 34.9802 41.6313 34.9802 41.0173 34.3676C37.0776 30.4373 32.0841 28.0879 26.6516 28.0879C14.7195 28.0879 4.90519 39.4222 3.72333 53.9475Z" fill="#E8E4EC"/>
<path fill-rule="evenodd" clip-rule="evenodd" d="M22.5886 76.4892C13.1568 71.3697 6.08637 62.7666 3.37109 53.1269C5.98181 50.982 9.32361 49.6943 12.9661 49.6943C21.3194 49.6943 28.0911 56.466 28.0911 64.8193C28.0911 69.5173 25.9492 73.7151 22.5886 76.4892Z" fill="#FFD9D9"/>
<path fill-rule="evenodd" clip-rule="evenodd" d="M80.4957 52.8062C77.8758 62.4736 70.8741 71.1303 61.4876 76.3258C58.2392 73.5517 56.1797 69.426 56.1797 64.8193C56.1797 56.466 62.9514 49.6943 71.3047 49.6943C74.7619 49.6943 77.9482 50.8543 80.4957 52.8062Z" fill="#FFD9D9"/>
<path d="M5.63319 26.6053C4.63384 21.6847 2.41321 8.43305 6.84486 5.7612C11.4251 2.99977 19.6432 10.6813 22.187 13.244C22.5868 13.6468 22.4764 14.3075 21.9828 14.5876C15.9208 18.0278 11.1306 21.9634 7.17705 26.9461C6.71438 27.5292 5.78134 27.3348 5.63319 26.6053Z" fill="#DCDDDD"/>
<path d="M78.0587 26.5326C78.9297 21.5554 80.7573 8.41998 76.3473 5.76119C71.7658 2.99899 63.9219 10.6856 61.5028 13.2462C61.1194 13.6519 61.2358 14.2979 61.7214 14.5732C67.7741 18.0047 72.5597 21.9287 76.5108 26.8934C76.981 27.4844 77.9285 27.2765 78.0587 26.5326Z" fill="#DCDDDD"/>
<circle cx="26.7507" cy="44.068" r="5.04167" fill="#323232"/>
<circle cx="28.6413" cy="42.8073" r="1.26042" fill="white"/>
<circle cx="5.04167" cy="5.04167" r="5.04167" transform="matrix(-1 0 0 1 62.043 39.0264)" fill="#323232"/>
<circle cx="1.26042" cy="1.26042" r="1.26042" transform="matrix(-1 0 0 1 56.3711 41.5469)" fill="white"/>
<path d="M46.7601 52.7168C46.7601 54.0151 44.6981 55.0676 42.1544 55.0676C39.6108 55.0676 37.5488 54.0151 37.5488 52.7168C37.5488 51.4185 39.6108 49.6943 42.1544 49.6943C44.6981 49.6943 46.7601 51.4185 46.7601 52.7168Z" fill="#323232"/>
<circle cx="39.8516" cy="51.9971" r="0.767603" fill="white"/>
<path d="M42.1545 51.8623V56.4679C42.1545 58.1637 40.7798 59.5383 39.0841 59.5383H37.9327C36.8728 59.5383 36.0137 58.6792 36.0137 57.6193V57.6193" stroke="#323232" stroke-width="1.38169" stroke-linecap="round" stroke-linejoin="round"/>
<path d="M42.1541 51.8623V56.4679C42.1541 58.1637 43.5288 59.5383 45.2245 59.5383H46.3759C47.4358 59.5383 48.2949 58.6792 48.2949 57.6193V57.6193" stroke="#323232" stroke-width="1.38169" stroke-linecap="round" stroke-linejoin="round"/>
<path d="M34.9078 42.3384C34.9078 51.2656 27.3332 58.5695 17.905 58.5695C8.47685 58.5695 0.902251 51.2656 0.902251 42.3384C0.902251 33.4112 8.47685 26.1073 17.905 26.1073C27.3332 26.1073 34.9078 33.4112 34.9078 42.3384Z" stroke="#323232" stroke-width="1.8006"/>
<path d="M82.648 42.3384C82.648 51.2656 75.0734 58.5695 65.6452 58.5695C56.2171 58.5695 48.6425 51.2656 48.6425 42.3384C48.6425 33.4112 56.2171 26.1073 65.6452 26.1073C75.0734 26.1073 82.648 33.4112 82.648 42.3384Z" stroke="#323232" stroke-width="1.8006"/>
<path d="M35.0117 41.0795C40.1066 40.2118 43.0966 40.2274 48.5385 41.0795V44.2415C43.3418 43.4507 40.3787 43.4396 35.0117 44.2415V41.0795Z" fill="#242424"/>
</svg>
