<svg width="32" height="32" viewBox="0 0 32 32" fill="none" xmlns="http://www.w3.org/2000/svg">
<circle cx="16" cy="16" r="16" fill="#D9D9D9"/>
<g clip-path="url(#clip0_1714_4112)">
<path d="M12.0886 18.7842C11.3516 18.7742 10.6481 18.4745 10.1304 17.9498C9.61268 17.4251 9.32236 16.7177 9.32226 15.9805C9.32216 15.2434 9.61227 14.5359 10.1298 14.0111C10.6474 13.4863 11.3508 13.1863 12.0878 13.1761L15.4507 13.1749L15.4503 12.0592L12.0878 12.0608C11.0482 12.061 10.0512 12.4743 9.31627 13.2096C8.58132 13.9449 8.16857 14.9421 8.16883 15.9817C8.1691 17.0214 8.58234 18.0183 9.31767 18.7533C10.053 19.4882 11.0502 19.901 12.0898 19.9007L15.4515 19.9007L15.4515 18.7854L12.0886 18.7842Z" fill="black"/>
<path d="M23.853 15.982C23.8547 15.467 23.7543 14.9568 23.5574 14.4808C23.3605 14.0049 23.0712 13.5728 22.7061 13.2095C22.3431 12.8446 21.9113 12.5552 21.4357 12.3581C20.9602 12.1611 20.4503 12.0602 19.9355 12.0615L16.5715 12.0599L16.5711 13.1756L19.934 13.1768C20.3023 13.1757 20.6672 13.2477 21.0075 13.3885C21.3478 13.5294 21.6568 13.7364 21.9165 13.9975C22.3085 14.3898 22.5754 14.8894 22.6835 15.4333C22.7915 15.9772 22.7359 16.541 22.5236 17.0533C22.3114 17.5656 21.952 18.0035 21.4909 18.3115C21.0298 18.6196 20.4877 18.7841 19.9332 18.7841L16.5715 18.7841L16.5715 19.9002L19.9324 19.901C20.9716 19.8999 21.9679 19.4867 22.7028 18.752C23.4378 18.0174 23.8514 17.0212 23.853 15.982Z" fill="black"/>
<path d="M18.8131 15.4219L13.2095 15.4219L13.2095 16.5374L18.8131 16.5374L18.8131 15.4219Z" fill="black"/>
</g>
<defs>
<clipPath id="clip0_1714_4112">
<rect width="13.3858" height="13.3858" fill="white" transform="translate(16.0117 6.51367) rotate(45)"/>
</clipPath>
</defs>
</svg>
