<svg width="18" height="19" viewBox="0 0 18 19" fill="none" xmlns="http://www.w3.org/2000/svg">
<path d="M0 9.25C0 4.29297 4.00781 0.25 9 0.25C13.957 0.25 18 4.29297 18 9.25C18 14.2422 13.957 18.25 9 18.25C4.00781 18.25 0 14.2422 0 9.25ZM6.15234 7.59766L7.80469 9.25L6.15234 10.9023C5.80078 11.2539 5.80078 11.7812 6.15234 12.0977C6.46875 12.4492 6.99609 12.4492 7.3125 12.0977L8.96484 10.4453L10.6523 12.0977C10.9688 12.4492 11.4961 12.4492 11.8125 12.0977C12.1641 11.7812 12.1641 11.2539 11.8125 10.9023L10.1602 9.25L11.8125 7.59766C12.1641 7.28125 12.1641 6.75391 11.8125 6.40234C11.4961 6.08594 10.9688 6.08594 10.6523 6.40234L8.96484 8.08984L7.3125 6.40234C6.99609 6.08594 6.46875 6.08594 6.15234 6.40234C5.80078 6.75391 5.80078 7.28125 6.15234 7.59766Z" fill="#DC2626"/>
</svg>
