<svg width="146" height="38" viewBox="0 0 146 38" fill="none" xmlns="http://www.w3.org/2000/svg">
<path d="M51.8008 18.8477V20.8867H40.1055V18.8477H51.8008ZM47.043 13.8672V26.2891H44.875V13.8672H47.043Z" fill="white"/>
<path d="M106.801 18.8477V20.8867H95.1055V18.8477H106.801ZM102.043 13.8672V26.2891H99.875V13.8672H102.043Z" fill="white"/>
<path fill-rule="evenodd" clip-rule="evenodd" d="M14.0127 14.3665C13.9969 14.3665 13.9664 14.3665 13.9507 14.3665C13.689 14.3346 13.4736 14.0948 13.4736 13.8231C13.4578 13.5673 13.3191 7.58927 16.6914 6.23068C17.5384 5.89498 18.3245 5.95888 18.9865 6.45448C19.802 7.04587 20.3874 8.22867 20.7415 9.95496C20.9874 11.1698 21.0337 12.2246 21.0337 12.2726C21.0494 12.5283 20.8498 12.7202 20.5871 12.6722C20.3254 12.6402 20.11 12.4005 20.11 12.1447C20.0637 11.0579 19.7096 8.06887 18.5399 7.20567C18.17 6.93397 17.7076 6.90197 17.1538 7.12577C14.2586 8.29256 14.3973 13.903 14.3973 13.9669C14.3973 14.1907 14.2439 14.3665 14.0127 14.3665Z" fill="#595961"/>
<path opacity="0.46" fill-rule="evenodd" clip-rule="evenodd" d="M18.8148 6.48666C18.199 6.03906 17.4759 5.97516 16.6898 6.27886C15.3195 6.83825 14.3495 8.30885 13.8724 10.5466C13.5183 12.1929 13.5645 13.6795 13.5645 13.7434C13.5645 13.8233 13.595 13.9033 13.657 13.9672C13.7179 14.0311 13.7799 14.0791 13.8566 14.0791C13.8724 14.0791 13.8882 14.0791 13.9029 14.0791C14.0416 14.0791 14.1498 13.9672 14.1498 13.8233C14.1498 13.7594 14.0112 8.05305 16.9831 6.85425C17.5831 6.61456 18.1065 6.64645 18.5384 6.96615C19.7847 7.87725 20.1546 10.9622 20.2009 12.0651C20.2009 12.2249 20.3396 12.3848 20.5088 12.4007C20.6633 12.4167 20.7862 12.3048 20.7862 12.145C20.7705 11.9532 20.6013 7.79735 18.8148 6.48666Z" fill="#B2B2C2"/>
<path opacity="0.46" fill-rule="evenodd" clip-rule="evenodd" d="M13.8737 13.8875C13.8579 13.8875 13.8579 13.8875 13.8432 13.8875C13.7507 13.8715 13.6729 13.7756 13.6582 13.6797C13.6582 13.6157 13.612 12.1612 13.9662 10.5149C14.4275 8.32507 15.3985 6.87047 16.7373 6.32697C17.4919 6.02327 18.1698 6.08728 18.7551 6.50288C20.4796 7.76557 20.6488 11.8575 20.6488 12.0333C20.6488 12.1292 20.5721 12.1931 20.4796 12.1772C20.3871 12.1612 20.3104 12.0813 20.2946 11.9694C20.2946 11.9214 20.1254 7.90947 18.5701 6.75857C18.1077 6.42298 17.5382 6.37498 16.8919 6.63067C13.8737 7.89347 14.0124 13.6797 14.0124 13.7436C14.0271 13.8235 13.9662 13.8875 13.8737 13.8875Z" fill="#B2B2C2"/>
<path opacity="0.62" fill-rule="evenodd" clip-rule="evenodd" d="M15.1215 9.31527C15.2445 9.07557 15.3674 8.83577 15.4756 8.58008C15.4294 8.65998 15.1215 9.49117 14.182 9.36327C14.1662 9.36327 14.7358 9.53907 15.1215 9.31527Z" fill="#595961"/>
<path opacity="0.62" fill-rule="evenodd" clip-rule="evenodd" d="M14.7812 10.3389C14.8737 10.0831 14.9661 9.81136 15.0281 9.55566C14.9977 9.65156 14.8432 10.5147 13.8574 10.5147C13.8574 10.5147 14.427 10.6266 14.7812 10.3389Z" fill="#595961"/>
<path opacity="0.62" fill-rule="evenodd" clip-rule="evenodd" d="M20.1886 8.27689C20.0656 7.98908 19.9268 7.71739 19.7881 7.42969C19.8344 7.52559 20.2968 8.43668 19.7734 9.09198C19.7734 9.09198 20.1738 8.77238 20.1886 8.27689Z" fill="#595961"/>
<path opacity="0.62" fill-rule="evenodd" clip-rule="evenodd" d="M19.3414 6.83809C19.0945 6.63029 18.8485 6.43849 18.6016 6.2627C18.694 6.34259 19.5106 6.93399 19.4643 7.82919C19.4486 7.82919 19.5873 7.30169 19.3414 6.83809Z" fill="#595961"/>
<path opacity="0.62" fill-rule="evenodd" clip-rule="evenodd" d="M15.5696 8.4359C15.7545 8.2441 15.9079 8.0363 16.0771 7.8125C16.0162 7.8764 15.5076 8.5318 14.5996 8.292C14.5996 8.292 15.1229 8.5798 15.5696 8.4359Z" fill="#595961"/>
<path opacity="0.62" fill-rule="evenodd" clip-rule="evenodd" d="M16.1379 7.70155C16.3533 7.54176 16.553 7.38185 16.7537 7.20605C16.677 7.25406 16.0455 7.78145 15.168 7.39785C15.168 7.39785 15.6755 7.76545 16.1379 7.70155Z" fill="#595961"/>
<path opacity="0.62" fill-rule="evenodd" clip-rule="evenodd" d="M16.9695 7.17376C17.2311 7.09386 17.4781 6.99796 17.724 6.90206C17.6316 6.93396 16.8465 7.22165 16.0762 6.61426C16.0919 6.61426 16.4924 7.09386 16.9695 7.17376Z" fill="#595961"/>
<path opacity="0.62" fill-rule="evenodd" clip-rule="evenodd" d="M17.7234 6.88647C17.9388 6.91847 18.1543 6.93447 18.3697 6.95047C18.293 6.93447 17.6151 6.88647 17.2305 6.24707C17.2305 6.24707 17.385 6.67867 17.7234 6.88647Z" fill="#595961"/>
<path opacity="0.62" fill-rule="evenodd" clip-rule="evenodd" d="M18.6168 7.23715C18.7702 7.41305 18.9404 7.58885 19.1243 7.74864C19.0634 7.68475 18.54 7.15725 18.663 6.50195C18.6472 6.50195 18.478 6.86955 18.6168 7.23715Z" fill="#595961"/>
<path opacity="0.74" fill-rule="evenodd" clip-rule="evenodd" d="M20.4796 11.9527C20.4796 11.7768 20.3104 7.73278 18.6321 6.50209C18.3085 6.26229 17.9543 6.15039 17.5844 6.15039C17.307 6.15039 17.0148 6.21429 16.7069 6.34219C15.367 6.86969 14.4275 8.29228 13.9662 10.4661C13.612 12.0965 13.6582 13.5511 13.6582 13.615C13.6582 13.663 13.7045 13.7109 13.7507 13.7109H13.7654C13.8116 13.7109 13.8432 13.679 13.8432 13.631C13.8432 13.5671 13.6887 7.73278 16.7836 6.48609C17.4614 6.21429 18.0468 6.26229 18.5396 6.62989C20.1402 7.79678 20.3104 11.8728 20.3104 11.9207C20.3104 11.9687 20.3567 12.0166 20.4029 12.0166C20.4029 12.0166 20.4029 12.0166 20.4176 12.0166C20.4491 12.0326 20.4796 12.0006 20.4796 11.9527Z" fill="url(#paint0_linear_2863_825)"/>
<path fill-rule="evenodd" clip-rule="evenodd" d="M20.7422 9.955C20.388 8.22871 19.8027 7.06181 18.9872 6.45442C18.5406 6.13482 18.0624 5.99092 17.5391 6.02292C17.9552 6.05482 18.3398 6.19872 18.694 6.45442C19.5105 7.04592 20.0959 8.22871 20.4501 9.955C20.696 11.1698 20.7422 12.2247 20.7422 12.2727C20.7422 12.4645 20.6497 12.6084 20.4952 12.6563C20.5267 12.6723 20.5573 12.6723 20.573 12.6723C20.8347 12.7043 21.0343 12.5284 21.0196 12.2727C21.0343 12.2247 20.9881 11.1858 20.7422 9.955Z" fill="url(#paint1_linear_2863_825)"/>
<path fill-rule="evenodd" clip-rule="evenodd" d="M16.8609 7.12658C13.9657 8.29338 14.1044 13.9038 14.1044 13.9677C14.1044 14.1595 14.0119 14.3034 13.8574 14.3513C13.8889 14.3673 13.9037 14.3673 13.9352 14.3673C13.9499 14.3673 13.9814 14.3673 13.9962 14.3673C14.2274 14.3673 14.3808 14.1915 14.3808 13.9677C14.3808 13.9038 14.2431 8.30938 17.1373 7.14259C17.338 7.06269 17.5229 7.01469 17.6921 6.99869C17.4452 6.95079 17.1688 6.99868 16.8609 7.12658Z" fill="url(#paint2_linear_2863_825)"/>
<path fill-rule="evenodd" clip-rule="evenodd" d="M21.2493 8.517L8.192 12.7048C8.192 12.7048 7.63818 12.8647 7.49947 13.0405C7.36075 13.2163 7.33026 13.7118 7.33026 13.7118L5.3125 29.8558L20.4643 32.7969L21.635 8.501C21.4658 8.469 21.2956 8.501 21.2493 8.517Z" fill="url(#paint3_linear_2863_825)"/>
<path fill-rule="evenodd" clip-rule="evenodd" d="M25.7615 10.5949C25.7615 10.5949 25.7457 10.467 25.669 10.4191C25.607 10.3711 25.5302 10.3711 25.5302 10.3711L23.3896 10.2113L21.8195 8.59688C21.7575 8.54888 21.6956 8.51698 21.6188 8.50098L20.4492 32.7969L28.6556 30.9587L25.7615 10.5949Z" fill="url(#paint4_linear_2863_825)"/>
<path fill-rule="evenodd" clip-rule="evenodd" d="M15.8605 22.0069C15.6293 21.6872 15.3529 21.3995 15.0755 21.1437C14.798 20.888 14.5059 20.6802 14.2127 20.4884C14.013 20.3605 13.8281 20.2326 13.6736 20.1047C13.5202 19.9769 13.3972 19.849 13.3047 19.7371C13.2122 19.6092 13.1355 19.4973 13.0893 19.3695C13.043 19.2416 13.0273 19.1137 13.0273 18.9858C13.0273 18.81 13.0735 18.6342 13.1355 18.4903C13.1965 18.3465 13.3047 18.2186 13.4119 18.1067C13.5359 17.9948 13.6736 17.9149 13.8438 17.851C14.013 17.787 14.2127 17.7551 14.4281 17.7391C14.6593 17.7231 14.8905 17.7391 15.1059 17.7551C15.3214 17.771 15.5221 17.819 15.7218 17.8669C15.9067 17.9149 16.0917 17.9788 16.2451 18.0428C16.3996 18.1067 16.553 18.1706 16.6612 18.2346L17.6775 15.1017C17.5241 15.0218 17.3391 14.9418 17.1384 14.8939C16.923 14.8299 16.6918 14.782 16.4301 14.75C16.1684 14.7181 15.891 14.7021 15.5988 14.7021C15.3067 14.7021 14.9988 14.7181 14.6751 14.766C13.9826 14.8619 13.3657 15.0537 12.8119 15.3414C12.2885 15.6132 11.8261 15.9648 11.4415 16.3964C11.0716 16.812 10.7794 17.2915 10.564 17.835C10.3632 18.3625 10.2403 18.9539 10.2098 19.5932C10.1941 19.9769 10.2245 20.3285 10.317 20.6482C10.3937 20.9679 10.5177 21.2716 10.6869 21.5593C10.8404 21.847 11.0411 22.1028 11.2565 22.3425C11.4719 22.5823 11.7336 22.8061 11.9953 23.0139C12.2107 23.1737 12.3957 23.3335 12.5502 23.4774C12.7036 23.6213 12.8276 23.7651 12.919 23.925C13.0115 24.0688 13.0735 24.2127 13.1197 24.3725C13.166 24.5164 13.1818 24.6762 13.166 24.8361C13.166 24.9959 13.1198 25.1557 13.0578 25.2836C12.9968 25.4115 12.919 25.5394 12.7961 25.6353C12.6889 25.7312 12.5502 25.7951 12.3957 25.8271C12.2423 25.859 12.0573 25.875 11.8566 25.8431C11.6265 25.8111 11.3952 25.7472 11.1798 25.6512C10.9644 25.5713 10.7479 25.4594 10.5482 25.3475C10.3486 25.2357 10.1636 25.1078 10.0091 24.9959C9.83995 24.884 9.70121 24.7561 9.59402 24.6602L8.90039 27.0419C9.00863 27.2017 9.1621 27.3456 9.33129 27.4894C9.50154 27.6333 9.70123 27.7771 9.93243 27.921C10.1636 28.0489 10.4095 28.1767 10.6712 28.2886C10.9329 28.4005 11.226 28.4964 11.5182 28.5764H11.534H11.5487H11.5644H11.5802C12.2108 28.7202 12.8119 28.7522 13.3814 28.6723C13.9668 28.5923 14.5059 28.3845 14.9672 28.0649C15.4443 27.7292 15.83 27.2816 16.1221 26.6902C16.4153 26.0988 16.5845 25.3795 16.615 24.5643C16.6308 24.0528 16.5688 23.6053 16.4301 23.1897C16.2914 22.7102 16.0917 22.3425 15.8605 22.0069Z" fill="url(#paint5_linear_2863_825)"/>
<path opacity="0.226763" fill-rule="evenodd" clip-rule="evenodd" d="M8.99939 27.1727C8.96366 27.1303 8.93 27.0871 8.89952 27.0426L9.59315 24.6609C9.6026 24.6698 9.6131 24.679 9.62361 24.6884C9.7266 24.7804 9.85484 24.8951 10.0083 24.9966C10.1628 25.1085 10.3477 25.2364 10.5474 25.3483C10.747 25.4601 10.9635 25.572 11.1789 25.652C11.3943 25.7479 11.6256 25.8118 11.8557 25.8438C12.0565 25.8757 12.2414 25.8598 12.3948 25.8278C12.5493 25.7958 12.688 25.7319 12.7952 25.636C12.9182 25.5401 12.996 25.4122 13.0569 25.2843C13.1189 25.1564 13.1651 24.9966 13.1651 24.8368C13.1809 24.6769 13.1651 24.5171 13.1189 24.3732C13.0726 24.2134 13.0107 24.0695 12.9182 23.9257C12.8309 23.7738 12.7153 23.6364 12.5714 23.4996C12.647 23.585 12.7112 23.6727 12.7647 23.7658C12.8572 23.9097 12.9182 24.0535 12.9644 24.2134C13.0107 24.3572 13.0264 24.5171 13.0107 24.6769C13.0107 24.8368 12.9644 24.9966 12.9035 25.1245C12.8415 25.2524 12.7647 25.3802 12.6418 25.4761C12.5335 25.572 12.3948 25.636 12.2414 25.6679C12.0869 25.6999 11.902 25.7159 11.7023 25.6839C11.4711 25.652 11.2399 25.588 11.0245 25.4921C10.809 25.4122 10.5936 25.3003 10.3929 25.1884C10.1932 25.0765 10.0083 24.9487 9.85484 24.8368C9.70036 24.7353 9.57215 24.6207 9.46916 24.5286C9.45865 24.5192 9.44914 24.51 9.43863 24.5011L8.74609 26.8827C8.8144 26.9845 8.90166 27.0797 8.99939 27.1727ZM11.2683 22.3578C11.2105 22.3006 11.1548 22.2425 11.1012 22.1834C10.8857 21.9436 10.6861 21.6879 10.5316 21.4002C10.3624 21.1124 10.2394 20.8087 10.1627 20.4891C10.0702 20.1694 10.0387 19.8177 10.0545 19.4341C10.0849 18.7947 10.209 18.2034 10.4086 17.6759C10.6241 17.1325 10.9173 16.653 11.2862 16.2374C11.6718 15.8058 12.1331 15.4541 12.6565 15.1824C13.2113 14.8947 13.8272 14.7029 14.5197 14.607C14.8434 14.559 15.1513 14.543 15.4435 14.543C15.7367 14.543 16.0141 14.559 16.2758 14.591C16.5375 14.623 16.7687 14.6709 16.9841 14.7349C17.1838 14.7828 17.3687 14.8627 17.5232 14.9426L17.499 15.0173C17.3876 14.9689 17.2657 14.9253 17.1375 14.8947C16.9221 14.8308 16.6909 14.7828 16.4292 14.7508C16.1675 14.7189 15.8901 14.7029 15.5979 14.7029C15.3058 14.7029 14.9979 14.7189 14.6742 14.7668C13.9817 14.8627 13.3648 15.0545 12.811 15.3423C12.2876 15.614 11.8252 15.9656 11.4406 16.3972C11.0707 16.8128 10.7785 17.2923 10.5631 17.8358C10.3624 18.3633 10.2394 18.9546 10.209 19.5939C10.1932 19.9776 10.2237 20.3292 10.3161 20.6489C10.3929 20.9686 10.5169 21.2723 10.6861 21.56C10.8395 21.8477 11.0402 22.1035 11.2556 22.3432C11.2598 22.348 11.2641 22.353 11.2683 22.3578ZM13.3595 19.8033C13.4436 19.8984 13.5487 20.0019 13.6727 20.1054C13.8272 20.2333 14.0122 20.3612 14.2118 20.4891C14.505 20.6809 14.7972 20.8887 15.0746 21.1444C15.1555 21.2189 15.2354 21.296 15.3153 21.3759C15.1871 21.238 15.0536 21.1076 14.9201 20.9846C14.6437 20.7288 14.3506 20.521 14.0584 20.3292C13.8577 20.2013 13.6727 20.0735 13.5193 19.9456C13.4615 19.898 13.4089 19.8503 13.3595 19.8033Z" fill="black"/>
<path opacity="0.41" fill-rule="evenodd" clip-rule="evenodd" d="M23.9119 28.272L23.3886 10.2099L23.2961 10.114L23.5431 28.0162C23.5431 28.0162 21.3719 31.4368 21.0482 31.3409C20.5711 31.1971 21.9877 8.77132 21.9877 8.77132L21.8333 8.61153C21.7723 8.56352 21.6946 8.53163 21.6336 8.51562L20.4787 32.4758L20.4629 32.8115L20.8633 32.284L23.9119 28.272Z" fill="url(#paint6_linear_2863_825)"/>
<path fill-rule="evenodd" clip-rule="evenodd" d="M18.0166 9.55603C17.8327 10.3072 17.6015 11.0105 17.4323 11.4421C17.3241 11.6979 17.4471 11.9376 17.6782 11.9696C17.9252 12.0016 18.2016 11.8257 18.2941 11.57C18.3098 11.522 18.7249 10.4831 18.9876 9.25233V9.23633L18.0166 9.55603Z" fill="url(#paint7_linear_2863_825)"/>
<path fill-rule="evenodd" clip-rule="evenodd" d="M11.0718 11.7935C10.8563 12.273 10.6409 12.6886 10.4864 12.9763C10.3487 13.2161 10.4254 13.4718 10.6566 13.5357C10.8868 13.6157 11.1947 13.4718 11.3334 13.232C11.3492 13.2001 11.7958 12.4169 12.1962 11.4258L11.0718 11.7935Z" fill="url(#paint8_linear_2863_825)"/>
<path opacity="0.32" fill-rule="evenodd" clip-rule="evenodd" d="M20.4629 32.797L23.9119 28.2734L28.6861 30.9588L20.4629 32.797Z" fill="url(#paint9_linear_2863_825)"/>
<path opacity="0.19" fill-rule="evenodd" clip-rule="evenodd" d="M20.4629 32.797L23.8814 28.2734L28.6861 30.9588L20.4629 32.797Z" fill="url(#paint10_linear_2863_825)"/>
<path opacity="0.19" fill-rule="evenodd" clip-rule="evenodd" d="M20.4629 32.797L23.8814 28.2734L28.6861 30.9588L20.4629 32.797Z" fill="url(#paint11_linear_2863_825)"/>
<path opacity="0.6" fill-rule="evenodd" clip-rule="evenodd" d="M17.1073 20.1368C18.8938 22.6463 20.095 25.3636 20.695 28.0009L21.6346 8.48435C21.4654 8.45245 21.2951 8.48435 21.2489 8.50035L8.19154 12.7042C8.19154 12.7042 8.06854 12.7361 7.91406 12.8001C11.2254 13.9829 14.5358 16.5244 17.1073 20.1368Z" fill="url(#paint12_linear_2863_825)"/>
<path fill-rule="evenodd" clip-rule="evenodd" d="M25.6828 10.435C25.7605 10.499 25.7606 10.5949 25.7606 10.5949L28.6242 30.9426L23.912 28.2573L23.3887 10.1953L25.4989 10.3551C25.5136 10.3711 25.606 10.3711 25.6828 10.435Z" fill="url(#paint13_linear_2863_825)"/>
<path fill-rule="evenodd" clip-rule="evenodd" d="M25.3462 10.4832C25.3462 10.4832 25.4387 10.4832 25.5154 10.5631C25.5921 10.6271 25.6078 10.723 25.6078 10.723L28.4263 30.847L28.6418 30.9749L25.777 10.6111C25.777 10.6111 25.7623 10.5152 25.7003 10.4513C25.6236 10.3873 25.5154 10.3873 25.5154 10.3873L23.4062 10.2275L25.3462 10.4832Z" fill="url(#paint14_linear_2863_825)"/>
<path fill-rule="evenodd" clip-rule="evenodd" d="M5.3125 29.8551L20.4643 32.7961L21.2041 16.1406L7.19672 16.5388L5.3125 29.8551Z" fill="url(#paint15_linear_2863_825)"/>
<path opacity="0.3" fill-rule="evenodd" clip-rule="evenodd" d="M10.2862 12.9373C10.1485 13.3258 10.2841 13.7339 10.5909 13.8492C10.8968 13.9643 11.2562 13.7428 11.3949 13.3544C11.5326 12.966 11.396 12.5577 11.0902 12.4426C10.7843 12.3274 10.4239 12.5489 10.2862 12.9373Z" fill="white"/>
<path opacity="0.89" fill-rule="evenodd" clip-rule="evenodd" d="M10.2704 12.7528C10.1328 13.1412 10.2693 13.5495 10.5752 13.6646C10.881 13.7799 11.2414 13.5584 11.3791 13.17C11.5168 12.7815 11.3812 12.3732 11.0744 12.258C10.7686 12.1428 10.4091 12.3643 10.2704 12.7528Z" fill="black"/>
<path fill-rule="evenodd" clip-rule="evenodd" d="M23.4044 10.2113L21.8333 8.59688C21.7723 8.54888 21.6946 8.51698 21.6336 8.50098L20.4629 32.7969L23.9277 28.2573L23.4044 10.2113Z" fill="url(#paint16_linear_2863_825)"/>
<path fill-rule="evenodd" clip-rule="evenodd" d="M21.2492 8.51656L8.19182 12.7043C8.19182 12.7043 7.638 12.8642 7.49928 13.04C7.48352 13.056 7.48346 13.072 7.46875 13.088L20.6333 9.31576C20.7416 9.28376 21.0032 9.18786 20.9728 9.97105L20.172 32.7644L20.4494 32.8124L21.6191 8.51656C21.4656 8.46856 21.2954 8.50056 21.2492 8.51656Z" fill="url(#paint17_linear_2863_825)"/>
<path fill-rule="evenodd" clip-rule="evenodd" d="M21.2492 8.51656L8.19182 12.7043C8.19182 12.7043 7.638 12.8642 7.49928 13.04C7.48352 13.056 7.48346 13.072 7.46875 13.088L10.5174 12.2088L21.0032 8.83626C21.0495 8.82026 21.2187 8.78826 21.3879 8.82026L20.233 32.7644L20.4494 32.8124L21.6191 8.51656C21.4656 8.46856 21.2954 8.50056 21.2492 8.51656Z" fill="url(#paint18_linear_2863_825)"/>
<path opacity="0.32" fill-rule="evenodd" clip-rule="evenodd" d="M24.6065 28.6574L23.9129 28.2578L20.4492 32.7973L20.6331 32.7493C20.6331 32.7493 23.6828 28.6734 23.9592 28.5455C24.1599 28.4656 24.6065 28.6574 24.6065 28.6574Z" fill="url(#paint19_linear_2863_825)"/>
<path opacity="0.57" fill-rule="evenodd" clip-rule="evenodd" d="M20.4629 32.7973L23.9277 28.2578C23.9119 28.2738 21.7261 30.7513 20.4629 32.7973Z" fill="url(#paint20_linear_2863_825)"/>
<path opacity="0.46" fill-rule="evenodd" clip-rule="evenodd" d="M28.6885 30.9588L23.93 28.2734C23.9142 28.2734 24.4691 28.3693 28.6885 30.9588Z" fill="url(#paint21_linear_2863_825)"/>
<path opacity="0.3" fill-rule="evenodd" clip-rule="evenodd" d="M17.3257 11.3435C17.187 11.732 17.3236 12.1403 17.6294 12.2555C17.9363 12.3708 18.2957 12.1493 18.4334 11.7609C18.5721 11.3723 18.4355 10.9641 18.1297 10.8488C17.8239 10.7337 17.4634 10.9551 17.3257 11.3435Z" fill="white"/>
<path opacity="0.89" fill-rule="evenodd" clip-rule="evenodd" d="M17.3095 11.1599C17.1718 11.5484 17.3085 11.9567 17.6143 12.072C17.9201 12.1871 18.2805 11.9657 18.4182 11.5772C18.5558 11.1888 18.4203 10.7805 18.1144 10.6653C17.8076 10.55 17.4482 10.7715 17.3095 11.1599Z" fill="black"/>
<path fill-rule="evenodd" clip-rule="evenodd" d="M10.8252 13.5355C10.8094 13.5355 10.7789 13.5355 10.7631 13.5355C10.5172 13.5036 10.3481 13.2638 10.3785 12.9921C10.409 12.7363 11.2865 6.75821 14.89 5.39962C15.798 5.06392 16.5683 5.12782 17.1536 5.62342C17.8619 6.21482 18.2465 7.39761 18.3085 9.1239C18.3548 10.3387 18.2161 11.3936 18.2161 11.4416C18.1856 11.6973 17.9544 11.8892 17.7075 11.8412C17.4616 11.8092 17.2766 11.5695 17.3228 11.3137C17.4615 10.2268 17.615 7.23781 16.584 6.37462C16.2604 6.10292 15.8138 6.07092 15.2137 6.29472C12.1188 7.46151 11.3022 13.072 11.3022 13.1199C11.2402 13.3597 11.0564 13.5355 10.8252 13.5355Z" fill="#595961"/>
<path opacity="0.46" fill-rule="evenodd" clip-rule="evenodd" d="M16.9691 5.65453C16.43 5.20703 15.7217 5.14313 14.8747 5.44683C13.4119 6.00623 12.1802 7.47672 11.3331 9.69851C10.7026 11.3449 10.4862 12.8314 10.4862 12.8954C10.4714 12.9753 10.5019 13.0552 10.5482 13.1192C10.5944 13.1831 10.6564 13.2311 10.7331 13.2311C10.7478 13.2311 10.7636 13.2311 10.7793 13.2311C10.9181 13.2311 11.041 13.1192 11.0568 12.9753C11.0715 12.9114 11.888 7.20502 15.0754 6.00623C15.7217 5.76643 16.245 5.79843 16.6149 6.11813C17.7079 7.02923 17.5545 10.1141 17.4157 11.217C17.4 11.3769 17.5082 11.5367 17.6617 11.5527C17.8161 11.5687 17.9695 11.4568 17.9853 11.297C18.0011 11.1211 18.5402 6.96533 16.9691 5.65453Z" fill="#B2B2C2"/>
<path opacity="0.81" fill-rule="evenodd" clip-rule="evenodd" d="M10.7634 13.0555C10.7477 13.0555 10.7477 13.0555 10.733 13.0555C10.6405 13.0395 10.5785 12.9436 10.5942 12.8477C10.61 12.7837 10.8097 11.3292 11.4413 9.68282C12.2883 7.49304 13.4895 6.03844 14.9208 5.49494C15.7373 5.19124 16.3994 5.25525 16.907 5.67084C18.4161 6.93354 17.8927 11.0255 17.8622 11.2013C17.8465 11.2972 17.7698 11.3611 17.6615 11.3452C17.5701 11.3292 17.5081 11.2493 17.5081 11.1374C17.5081 11.0894 18.0314 7.07744 16.6768 5.92654C16.2765 5.62284 15.7216 5.59094 15.0448 5.84664C11.7955 7.07744 10.9484 12.8477 10.9484 12.9116C10.9327 12.9915 10.8559 13.0555 10.7634 13.0555Z" fill="#B2B2C2"/>
<path opacity="0.42" fill-rule="evenodd" clip-rule="evenodd" d="M12.7964 8.48422C12.9656 8.24452 13.12 8.00472 13.2735 7.74902C13.2125 7.82892 12.7659 8.66012 11.8421 8.53222C11.8264 8.53222 12.3655 8.70802 12.7964 8.48422Z" fill="#595961"/>
<path opacity="0.42" fill-rule="evenodd" clip-rule="evenodd" d="M12.2716 9.50683C12.4103 9.25103 12.549 8.97933 12.6562 8.72363C12.6099 8.81953 12.302 9.68263 11.332 9.68263C11.332 9.68263 11.8712 9.79453 12.2716 9.50683Z" fill="#595961"/>
<path opacity="0.42" fill-rule="evenodd" clip-rule="evenodd" d="M11.8729 10.5632C11.9959 10.2914 12.0884 10.0197 12.1809 9.74805C12.1346 9.84395 11.9654 10.723 10.9492 10.8349C10.9492 10.8189 11.503 10.8829 11.8729 10.5632Z" fill="#595961"/>
<path opacity="0.62" fill-rule="evenodd" clip-rule="evenodd" d="M18.0304 7.44583C17.9536 7.15802 17.8769 6.88633 17.7687 6.59863C17.7991 6.69453 18.1071 7.60563 17.4766 8.26092C17.4766 8.26092 17.9379 7.94132 18.0304 7.44583Z" fill="#595961"/>
<path opacity="0.62" fill-rule="evenodd" clip-rule="evenodd" d="M17.4325 6.00703C17.2171 5.79923 17.0006 5.60744 16.7852 5.43164C16.8629 5.51154 17.586 6.10293 17.3863 6.99803C17.3705 6.99803 17.6017 6.47053 17.4325 6.00703Z" fill="#595961"/>
<path opacity="0.62" fill-rule="evenodd" clip-rule="evenodd" d="M18.1857 8.91631C18.17 8.62861 18.1238 8.32491 18.0775 8.03711C18.0775 8.14901 18.232 9.0921 17.4922 9.6036C17.4922 9.6036 18.0008 9.3798 18.1857 8.91631Z" fill="#595961"/>
<path opacity="0.62" fill-rule="evenodd" clip-rule="evenodd" d="M18.2625 10.4182C18.2783 10.1305 18.2783 9.82676 18.2625 9.53906C18.2625 9.65096 18.2783 10.5941 17.4922 11.0256C17.4922 11.0097 18.0313 10.8498 18.2625 10.4182Z" fill="#595961"/>
<path opacity="0.42" fill-rule="evenodd" clip-rule="evenodd" d="M11.5182 11.729C11.6107 11.4413 11.6727 11.1536 11.7337 10.8818C11.7032 10.9777 11.5645 11.8888 10.625 12.1126C10.6408 12.1126 11.1946 12.0966 11.5182 11.729Z" fill="#595961"/>
<path opacity="0.42" fill-rule="evenodd" clip-rule="evenodd" d="M13.38 7.60484C13.5954 7.41304 13.7961 7.20525 13.9811 6.98145C13.9033 7.04534 13.2875 7.70074 12.4258 7.46094C12.4405 7.46094 12.9176 7.74874 13.38 7.60484Z" fill="#595961"/>
<path opacity="0.42" fill-rule="evenodd" clip-rule="evenodd" d="M14.072 6.8705C14.319 6.7107 14.5502 6.5508 14.7804 6.375C14.6889 6.423 13.9806 6.95039 13.1641 6.5668C13.1641 6.5668 13.5949 6.9344 14.072 6.8705Z" fill="#595961"/>
<path opacity="0.62" fill-rule="evenodd" clip-rule="evenodd" d="M15.0136 6.3427C15.2911 6.2627 15.5528 6.1668 15.8144 6.0709C15.722 6.1029 14.8907 6.3906 14.2129 5.7832C14.2129 5.7832 14.5365 6.2627 15.0136 6.3427Z" fill="#595961"/>
<path opacity="0.62" fill-rule="evenodd" clip-rule="evenodd" d="M15.7987 6.05541C16.0152 6.08741 16.2307 6.10342 16.4461 6.11942C16.3694 6.10342 15.7073 6.05541 15.4141 5.41602C15.4298 5.41602 15.5066 5.84761 15.7987 6.05541Z" fill="#595961"/>
<path opacity="0.62" fill-rule="evenodd" clip-rule="evenodd" d="M16.6317 6.40619C16.7704 6.58199 16.9081 6.75779 17.0468 6.91769C17.0006 6.85369 16.5697 6.3263 16.7851 5.6709C16.8009 5.6709 16.5697 6.0386 16.6317 6.40619Z" fill="#595961"/>
<path fill-rule="evenodd" clip-rule="evenodd" d="M17.6925 11.1225C17.7073 10.9467 18.2317 6.9027 16.7688 5.67191C16.4914 5.43221 16.153 5.32031 15.7831 5.32031C15.5057 5.32031 15.1978 5.38421 14.8741 5.51211C13.4575 6.03961 12.2721 7.4622 11.4408 9.63599C10.8092 11.2664 10.6095 12.721 10.5938 12.7849C10.5938 12.8328 10.6243 12.8808 10.6705 12.8808H10.6862C10.7325 12.8808 10.763 12.8488 10.763 12.8009C10.7787 12.7369 11.61 6.9027 14.9203 5.65591C15.6286 5.38421 16.2297 5.43221 16.6606 5.79981C18.0614 6.9666 17.5381 11.0426 17.5234 11.0906C17.5234 11.1385 17.5539 11.1865 17.6001 11.1865C17.6001 11.1865 17.6001 11.1865 17.6148 11.1865C17.661 11.2025 17.6925 11.1705 17.6925 11.1225Z" fill="url(#paint22_linear_2863_825)"/>
<path fill-rule="evenodd" clip-rule="evenodd" d="M18.3085 9.12394C18.2464 7.39765 17.8618 6.23076 17.1535 5.62336C16.7689 5.30377 16.3065 5.15987 15.7832 5.19187C16.1836 5.22376 16.5525 5.36767 16.8614 5.62336C17.5697 6.21486 17.9543 7.39765 18.0153 9.12394C18.0615 10.3387 17.9239 11.3936 17.9239 11.4416C17.8923 11.6334 17.7694 11.7773 17.6149 11.8252C17.6464 11.8412 17.6611 11.8412 17.6926 11.8412C17.9385 11.8732 18.1698 11.6973 18.2002 11.4416C18.216 11.3936 18.3547 10.3547 18.3085 9.12394Z" fill="url(#paint23_linear_2863_825)"/>
<path fill-rule="evenodd" clip-rule="evenodd" d="M14.9069 6.29388C11.812 7.46067 10.9954 13.0711 10.9954 13.135C10.965 13.3268 10.8409 13.4707 10.6875 13.5186C10.718 13.5346 10.7337 13.5346 10.7642 13.5346C10.78 13.5346 10.8105 13.5346 10.8262 13.5346C11.0574 13.5346 11.2413 13.3588 11.2729 13.135C11.2876 13.0711 12.0884 7.47668 15.1832 6.30978C15.3997 6.22988 15.5837 6.18198 15.7539 6.16598C15.5227 6.13398 15.2295 6.18198 14.9069 6.29388Z" fill="url(#paint24_linear_2863_825)"/>
<path d="M115.122 24.564L124.093 9.20605C125.232 9.87691 130.978 13.0569 131.906 13.6616L122.935 29.0205C121.954 30.3165 113.879 26.5309 115.122 24.563V24.564Z" fill="#FBBC04"/>
<path d="M140.896 24.5635L131.925 9.20655C130.671 7.11945 127.97 6.36101 125.751 7.59371C123.533 8.8264 122.857 11.4819 124.112 13.6621L133.082 29.021C134.337 31.1071 137.038 31.8656 139.256 30.6329C141.378 29.4002 142.15 26.6506 140.896 24.5654V24.5635Z" fill="#4285F4"/>
<path d="M119.003 31.2269C121.49 31.2269 123.506 29.2609 123.506 26.8356C123.506 24.4104 121.49 22.4443 119.003 22.4443C116.516 22.4443 114.5 24.4104 114.5 26.8356C114.5 29.2609 116.516 31.2269 119.003 31.2269Z" fill="#34A853"/>
<path d="M73.5 3.10156C64.5716 3.10156 57.3125 10.3606 57.3125 19.2891C57.3125 28.2175 64.5716 35.4766 73.5 35.4766C82.4284 35.4766 89.6875 28.2175 89.6875 19.2891C89.6875 10.3606 82.4284 3.10156 73.5 3.10156Z" fill="#FFE01B"/>
<path d="M66.4108 23.5096C66.0569 22.9737 66.9471 22.1627 66.5851 21.4817C66.3763 21.0889 66.0351 20.8442 65.6254 20.7928C65.2321 20.7435 64.827 20.8875 64.5688 21.1688C64.1611 21.6124 64.0977 22.2163 64.1766 22.43C64.2055 22.5083 64.2508 22.5297 64.2833 22.5343C64.5053 22.5635 64.6303 21.9936 64.7069 21.875C64.9189 21.5478 65.4002 21.4488 65.7326 21.6638C66.3628 22.0715 65.8163 22.7303 65.8635 23.2867C65.9094 23.8285 66.2469 24.0463 66.55 24.0692C66.8448 24.0804 67.051 23.9166 67.103 23.797C67.2278 23.5116 66.7021 23.9505 66.4108 23.5096Z" fill="black"/>
<path d="M79.5792 18.5905C79.4139 18.5676 79.2332 18.5682 79.0453 18.5905C78.9025 18.4104 78.7747 18.1189 78.7025 17.7785C78.5742 17.1731 78.5876 16.7346 78.9458 16.6776C79.304 16.6206 79.4772 16.9869 79.6055 17.5923C79.6916 17.9993 79.6751 18.3733 79.5792 18.5905Z" fill="black"/>
<path d="M75.656 18.9507C75.6701 19.0878 75.6751 19.2265 75.6711 19.3542C76.0177 19.3746 76.2632 19.5392 76.3286 19.6436C76.3621 19.6976 76.3487 19.7327 76.3378 19.749C76.302 19.8048 76.2251 19.7961 76.064 19.7781C75.9233 19.7623 75.7718 19.7484 75.6144 19.7556C75.5287 20.0184 75.2746 20.043 75.0961 19.8487C74.9714 19.8867 74.7265 20.0431 74.6535 19.8731C74.6529 19.7888 74.7411 19.6662 74.9008 19.5579C74.7918 19.3499 74.7187 19.1273 74.6755 18.8967C74.4491 18.9375 74.2454 19.0009 74.0858 19.0507C74.0108 19.074 73.7142 19.208 73.6794 19.057C73.6562 18.9527 73.8186 18.7807 73.9902 18.6566C74.182 18.5205 74.3948 18.4237 74.6153 18.3678C74.6106 18.0394 74.6943 17.8104 74.9329 17.7724C75.2287 17.7254 75.412 17.9531 75.5389 18.3749C75.8964 18.4742 76.2534 18.7205 76.411 18.9751C76.4724 19.0738 76.4842 19.1501 76.4445 19.1903C76.3455 19.293 75.7966 18.9953 75.656 18.9507Z" fill="black"/>
<path d="M78.0067 20.4266C78.2335 20.5365 78.483 20.4932 78.5644 20.3299C78.6458 20.1666 78.5278 19.9453 78.301 19.8354C78.0742 19.7255 77.8248 19.7688 77.7434 19.9321C77.6619 20.0954 77.78 20.3167 78.0067 20.4266Z" fill="black"/>
<path d="M79.123 19.6156C79.1272 19.3658 79.2802 19.1664 79.4642 19.1694C79.6482 19.173 79.7941 19.3775 79.79 19.6268C79.7858 19.8761 79.6328 20.0755 79.4488 20.0725C79.2648 20.0694 79.1189 19.8649 79.123 19.6156Z" fill="black"/>
<path fill-rule="evenodd" clip-rule="evenodd" d="M84.1126 22.6747C84.1111 22.6695 84.1162 22.6875 84.1126 22.6747C84.4822 22.6747 85.0625 23.0939 85.0625 24.1069C85.0625 25.1147 84.6388 26.2563 84.5389 26.5097C83.0128 30.1198 79.3705 32.1293 75.0319 32.0021C70.987 31.8836 67.5375 29.7769 66.0279 26.3423C65.1151 26.3433 64.174 25.947 63.4586 25.3212C62.7046 24.6619 62.2397 23.8087 62.149 22.9189C62.0784 22.226 62.1645 21.5814 62.3845 21.0193L61.5367 20.3101C57.6568 17.0765 69.7918 3.76253 73.6728 7.10399C73.6923 7.12078 74.9932 8.38044 74.9963 8.38349C76.8676 7.59921 81.8815 6.10596 81.8871 9.5821C81.8892 10.7364 81.1439 12.0826 79.9498 13.3041C81.3298 14.5674 80.9659 16.362 81.1857 18.0085L81.665 18.1398C82.5788 18.3926 83.2287 18.7299 83.5467 19.0596C83.8647 19.3887 84.0224 19.7077 84.0796 20.0816C84.1332 20.3833 84.126 20.916 83.723 21.5117C83.8681 21.896 84.0006 22.2792 84.1126 22.6747ZM65.9593 25.4057C66.0949 25.4087 66.2294 25.4001 66.3613 25.3777C67.7792 25.1391 68.1503 23.619 67.9168 22.1263C67.6529 20.4408 66.4979 19.8466 65.714 19.8044C65.496 19.7932 65.2934 19.8125 65.1264 19.8456C63.7271 20.1239 62.937 21.2991 63.0927 22.8253C63.2334 24.2066 64.6487 25.3711 65.9593 25.4057ZM62.7902 20.2597C63.2597 19.5866 64.0271 19.0998 64.8981 18.9324C66.0067 15.9949 67.858 13.2883 70.3082 11.4258C72.1266 9.92856 74.0876 8.85459 74.0876 8.85459C74.0876 8.85459 73.0316 7.6458 72.7126 7.55677C70.7505 7.03378 66.5129 9.91838 63.807 13.7299C62.7123 15.2719 61.145 18.0029 61.8944 19.4076C61.9866 19.5815 62.5098 20.0287 62.7902 20.2597ZM78.6979 24.7311C78.701 24.7626 78.6814 24.7952 78.653 24.8069C78.653 24.8069 77.0764 25.5308 74.5721 24.7662C74.6622 25.5169 75.5725 25.8013 76.2085 25.9043C79.3117 26.4313 82.2129 24.6797 82.8659 24.2386C82.978 24.1629 82.8645 24.3576 82.8442 24.3862C82.0449 25.4042 79.8957 26.5829 77.0996 26.5824C75.8802 26.5819 74.6613 26.1581 74.2139 25.5064C73.5197 24.4955 74.1794 23.0197 75.3365 23.1733C77.2923 23.3913 79.2973 23.2275 81.1079 22.398C82.6865 21.6745 83.2828 20.8789 83.1932 20.2343C83.0541 19.2353 81.573 19.0791 80.8244 18.8362C80.4987 18.7299 80.3379 18.6449 80.3013 18.04C80.2853 17.776 80.2389 16.8547 80.2219 16.4736C80.192 15.8066 80.1106 14.8944 79.5374 14.518C79.388 14.4198 79.222 14.3725 79.0473 14.3633C78.908 14.3567 78.8254 14.3758 78.781 14.3861C78.771 14.3884 78.763 14.3903 78.7566 14.3913C78.4472 14.4432 78.2575 14.5998 78.0339 14.7844C78.021 14.7951 78.008 14.8058 77.9949 14.8166C77.28 15.4047 76.6765 15.5009 76.0049 15.4724C75.7958 15.4636 75.5802 15.4427 75.3528 15.4207C75.1437 15.4004 74.9245 15.3792 74.6912 15.3655L74.4062 15.3493C73.2816 15.2923 72.0755 16.2508 71.875 17.6122C71.6511 19.1318 72.5004 20.0626 73.0528 20.6679C73.1893 20.8175 73.3077 20.9472 73.3872 21.061C73.4382 21.1297 73.4975 21.2263 73.4975 21.3184C73.4975 21.4283 73.4254 21.5153 73.3548 21.5896C72.2075 22.7541 71.8405 24.6044 72.2729 26.1464C72.3271 26.3387 72.3956 26.5229 72.4765 26.6989C73.4908 29.0387 76.6378 30.1284 79.7117 29.1374C81.866 28.4427 83.7693 26.7642 84.1569 24.4487C84.2492 23.8454 84.1137 23.6124 83.9291 23.4999C83.7338 23.3814 83.4998 23.4226 83.4998 23.4226C83.4998 23.4226 83.3931 22.7017 83.0911 22.0464C82.1948 22.7444 81.0414 23.2349 80.1631 23.4836C78.756 23.8821 77.2361 24.0372 75.7821 23.8493C75.1923 23.7731 74.7961 23.7219 74.6262 24.2666C76.5657 24.9677 78.6185 24.6675 78.6185 24.6675C78.6582 24.6634 78.6937 24.6919 78.6979 24.7311ZM73.1022 11.1267C72.0415 11.6624 70.8571 12.6163 69.8954 13.7136C69.8614 13.7528 69.9119 13.8067 69.9536 13.7767C70.7845 13.18 71.9235 12.6254 73.4156 12.2663C75.087 11.8638 76.6961 12.0327 77.6789 12.2551C77.7284 12.2663 77.7593 12.1823 77.7155 12.1579C77.0661 11.7982 76.0693 11.554 75.3622 11.5489C75.3277 11.5484 75.3081 11.5087 75.3287 11.4813C75.4509 11.319 75.6184 11.1587 75.7714 11.0427C75.8055 11.0163 75.7848 10.9618 75.7416 10.9644C74.8619 11.0177 72.8528 11.9338 72.86 11.9005C72.9115 11.6563 73.0739 11.3337 73.1579 11.1831C73.178 11.1475 73.1388 11.1083 73.1022 11.1267Z" fill="black"/>
<defs>
<linearGradient id="paint0_linear_2863_825" x1="14.4611" y1="6.18647" x2="13.9782" y2="12.7614" gradientUnits="userSpaceOnUse">
<stop stop-color="white" stop-opacity="0.65"/>
<stop offset="1" stop-color="white" stop-opacity="0.01"/>
</linearGradient>
<linearGradient id="paint1_linear_2863_825" x1="17.9909" y1="9.95019" x2="21.391" y2="12.9282" gradientUnits="userSpaceOnUse">
<stop stop-opacity="0.01"/>
<stop offset="1" stop-opacity="0.4"/>
</linearGradient>
<linearGradient id="paint2_linear_2863_825" x1="16.6265" y1="13.396" x2="20.2253" y2="10.0439" gradientUnits="userSpaceOnUse">
<stop stop-opacity="0.01"/>
<stop offset="1" stop-opacity="0.4"/>
</linearGradient>
<linearGradient id="paint3_linear_2863_825" x1="12.0466" y1="3.61379" x2="-1.93143" y2="19.7196" gradientUnits="userSpaceOnUse">
<stop stop-color="#B8D26E"/>
<stop offset="1" stop-color="#7FB525"/>
</linearGradient>
<linearGradient id="paint4_linear_2863_825" x1="31.1672" y1="7.64594" x2="23.4958" y2="7.78839" gradientUnits="userSpaceOnUse">
<stop stop-color="#B4E034"/>
<stop offset="1" stop-color="#60A927"/>
</linearGradient>
<linearGradient id="paint5_linear_2863_825" x1="8.34972" y1="18.3847" x2="2.06015" y2="33.701" gradientUnits="userSpaceOnUse">
<stop stop-color="white"/>
<stop offset="1" stop-color="#CECEEB"/>
</linearGradient>
<linearGradient id="paint6_linear_2863_825" x1="17.3659" y1="56.1033" x2="27.3273" y2="56.0831" gradientUnits="userSpaceOnUse">
<stop stop-color="#1D1D1B" stop-opacity="0.5"/>
<stop offset="0.038033" stop-color="#1D1D1B" stop-opacity="0.4837"/>
<stop offset="0.4243" stop-color="#1D1D1B" stop-opacity="0.3185"/>
<stop offset="1" stop-color="#1D1D1B" stop-opacity="0.01"/>
</linearGradient>
<linearGradient id="paint7_linear_2863_825" x1="18.5252" y1="8.16355" x2="16.8727" y2="9.05298" gradientUnits="userSpaceOnUse">
<stop stop-opacity="0.01"/>
<stop offset="1" stop-opacity="0.4"/>
</linearGradient>
<linearGradient id="paint8_linear_2863_825" x1="11.5962" y1="10.8013" x2="10.4345" y2="11.7997" gradientUnits="userSpaceOnUse">
<stop stop-opacity="0.01"/>
<stop offset="1" stop-opacity="0.4"/>
</linearGradient>
<linearGradient id="paint9_linear_2863_825" x1="22.9262" y1="30.9707" x2="23.0438" y2="32.5211" gradientUnits="userSpaceOnUse">
<stop stop-opacity="0.01"/>
<stop offset="1" stop-opacity="0.4"/>
</linearGradient>
<linearGradient id="paint10_linear_2863_825" x1="20.1802" y1="28.7011" x2="20.4529" y2="32.7319" gradientUnits="userSpaceOnUse">
<stop stop-color="white" stop-opacity="0.5"/>
<stop offset="0.0896271" stop-color="white" stop-opacity="0.4552"/>
<stop offset="1" stop-color="white" stop-opacity="0.01"/>
</linearGradient>
<linearGradient id="paint11_linear_2863_825" x1="19.6558" y1="29.328" x2="20.1408" y2="33.6339" gradientUnits="userSpaceOnUse">
<stop stop-opacity="0.01"/>
<stop offset="1" stop-opacity="0.4"/>
</linearGradient>
<linearGradient id="paint12_linear_2863_825" x1="17.7536" y1="4.55384" x2="5.31395" y2="11.7484" gradientUnits="userSpaceOnUse">
<stop stop-color="white" stop-opacity="0.5"/>
<stop offset="1" stop-color="white" stop-opacity="0.01"/>
</linearGradient>
<linearGradient id="paint13_linear_2863_825" x1="20.153" y1="42.1559" x2="31.1327" y2="42.1781" gradientUnits="userSpaceOnUse">
<stop stop-color="#1D1D1B" stop-opacity="0.5"/>
<stop offset="0.0896271" stop-color="#1D1D1B" stop-opacity="0.4552"/>
<stop offset="1" stop-color="#1D1D1B" stop-opacity="0.01"/>
</linearGradient>
<linearGradient id="paint14_linear_2863_825" x1="28.0176" y1="9.62182" x2="26.4578" y2="10.004" gradientUnits="userSpaceOnUse">
<stop stop-color="white" stop-opacity="0.4"/>
<stop offset="1" stop-color="white" stop-opacity="0.01"/>
</linearGradient>
<linearGradient id="paint15_linear_2863_825" x1="14.0234" y1="32.974" x2="14.8344" y2="29.0639" gradientUnits="userSpaceOnUse">
<stop stop-color="#1D1D1B" stop-opacity="0.5"/>
<stop offset="0.0896271" stop-color="#1D1D1B" stop-opacity="0.4552"/>
<stop offset="1" stop-color="#1D1D1B" stop-opacity="0.01"/>
</linearGradient>
<linearGradient id="paint16_linear_2863_825" x1="18.7111" y1="55.607" x2="28.7082" y2="55.6156" gradientUnits="userSpaceOnUse">
<stop stop-color="#1D1D1B" stop-opacity="0.5"/>
<stop offset="1" stop-color="#1D1D1B" stop-opacity="0.01"/>
</linearGradient>
<linearGradient id="paint17_linear_2863_825" x1="9.57685" y1="7.10798" x2="4.72826" y2="25.7361" gradientUnits="userSpaceOnUse">
<stop stop-color="white" stop-opacity="0.5"/>
<stop offset="1" stop-color="white" stop-opacity="0.01"/>
</linearGradient>
<linearGradient id="paint18_linear_2863_825" x1="9.57685" y1="7.10798" x2="4.72826" y2="25.7361" gradientUnits="userSpaceOnUse">
<stop stop-color="white" stop-opacity="0.5"/>
<stop offset="1" stop-color="white" stop-opacity="0.01"/>
</linearGradient>
<linearGradient id="paint19_linear_2863_825" x1="21.3435" y1="26.6362" x2="17.5112" y2="31.911" gradientUnits="userSpaceOnUse">
<stop stop-color="white" stop-opacity="0.5"/>
<stop offset="0.0896271" stop-color="white" stop-opacity="0.4552"/>
<stop offset="1" stop-color="white" stop-opacity="0.01"/>
</linearGradient>
<linearGradient id="paint20_linear_2863_825" x1="22.4985" y1="27.8489" x2="22.119" y2="28.6995" gradientUnits="userSpaceOnUse">
<stop stop-opacity="0.01"/>
<stop offset="1" stop-opacity="0.4"/>
</linearGradient>
<linearGradient id="paint21_linear_2863_825" x1="26.264" y1="28.9733" x2="26.2453" y2="29.2019" gradientUnits="userSpaceOnUse">
<stop stop-opacity="0.01"/>
<stop offset="1" stop-opacity="0.4"/>
</linearGradient>
<linearGradient id="paint22_linear_2863_825" x1="12.4622" y1="4.78225" x2="10.8055" y2="11.3272" gradientUnits="userSpaceOnUse">
<stop stop-color="white" stop-opacity="0.65"/>
<stop offset="1" stop-color="white" stop-opacity="0.01"/>
</linearGradient>
<linearGradient id="paint23_linear_2863_825" x1="16.1699" y1="8.55723" x2="19.0519" y2="11.4873" gradientUnits="userSpaceOnUse">
<stop stop-opacity="0.01"/>
<stop offset="1" stop-opacity="0.4"/>
</linearGradient>
<linearGradient id="paint24_linear_2863_825" x1="14.3289" y1="12.8712" x2="18.3108" y2="8.78177" gradientUnits="userSpaceOnUse">
<stop stop-opacity="0.01"/>
<stop offset="1" stop-opacity="0.4"/>
</linearGradient>
</defs>
</svg>
