<svg width="27" height="24" viewBox="0 0 27 24" fill="none" xmlns="http://www.w3.org/2000/svg">
<path fill-rule="evenodd" clip-rule="evenodd" d="M19.7472 0.400695C18.3562 0.249982 16.6028 0.24999 14.366 0.25H11.8199C9.58308 0.24999 7.82972 0.249982 6.43866 0.400695C5.01909 0.554495 3.86889 0.873985 2.88682 1.58749C2.29229 2.01945 1.76945 2.54229 1.33749 3.13682C1.14057 3.40786 0.971937 3.69413 0.828048 3.99881C0.38741 4.93185 0.190865 6.01378 0.0950788 7.30397C-5.49108e-06 8.5847 -2.96043e-06 10.1546 1.61179e-07 12.0904V12.1801C-9.78439e-06 14.4169 -1.76877e-05 16.1703 0.150695 17.5613C0.304495 18.9809 0.623985 20.1311 1.33749 21.1132C1.76945 21.7077 2.29229 22.2306 2.88682 22.6625C3.86889 23.376 5.01909 23.6955 6.43866 23.8493C7.8297 24 9.58302 24 11.8198 24H14.366C16.6028 24 18.3562 24 19.7472 23.8493C21.1668 23.6955 22.317 23.376 23.2991 22.6625C23.8936 22.2306 24.4165 21.7077 24.8484 21.1132C25.5619 20.1311 25.8814 18.9809 26.0352 17.5613C26.1859 16.1703 26.1859 14.417 26.1859 12.1802V12.0896C26.1859 10.1406 26.1859 8.56233 26.0888 7.2764C25.9909 5.98052 25.7899 4.895 25.339 3.95922C25.1992 3.6692 25.0367 3.39601 24.8484 3.13682C24.4165 2.54229 23.8936 2.01945 23.2991 1.58749C22.317 0.873984 21.1668 0.554495 19.7472 0.400695ZM3.96066 3.06551C4.57939 2.61598 5.37132 2.35395 6.63544 2.21699C7.91666 2.07818 9.57116 2.07692 11.875 2.07692H14.3109C16.6147 2.07692 18.2692 2.07818 19.5505 2.21699C20.8146 2.35395 21.6065 2.61598 22.2252 3.06551C22.6645 3.38462 23.0508 3.77085 23.3699 4.21003L21.0592 6.52074C19.0111 8.56891 17.5385 10.0387 16.2684 11.0077C15.0194 11.9607 14.0741 12.3429 13.0929 12.3429C12.1118 12.3429 11.1665 11.9607 9.91745 11.0077C8.64737 10.0387 7.17484 8.56891 5.12667 6.52073L2.81596 4.21003C3.13515 3.77085 3.52144 3.38462 3.96066 3.06551ZM24.0999 6.06372C24.1735 6.45375 24.2281 6.89867 24.267 7.41403C24.3584 8.62331 24.359 10.1334 24.359 12.125C24.359 14.4288 24.3577 16.0833 24.2189 17.3646C24.082 18.6287 23.8199 19.4206 23.3704 20.0393C23.0511 20.4788 22.6647 20.8652 22.2252 21.1845C21.6065 21.634 20.8146 21.8961 19.5505 22.033C18.2692 22.1718 16.6147 22.1731 14.3109 22.1731H11.875C9.57116 22.1731 7.91666 22.1718 6.63544 22.033C5.37132 21.8961 4.57939 21.634 3.96066 21.1845C3.52123 20.8652 3.13478 20.4788 2.81551 20.0393C2.36598 19.4206 2.10395 18.6287 1.96699 17.3646C1.82818 16.0833 1.82692 14.4288 1.82692 12.125C1.82692 10.1476 1.8275 8.64464 1.91699 7.43923C1.95604 6.91321 2.01121 6.46014 2.086 6.06372L3.88425 7.86197C5.87227 9.85002 7.43024 11.408 8.80928 12.4602C10.2208 13.5371 11.5517 14.1699 13.0929 14.1699C14.6342 14.1699 15.9651 13.5371 17.3766 12.4602C18.7556 11.408 20.3136 9.85004 22.3016 7.862L24.0999 6.06372Z" fill="#090909" fill-opacity="0.3"/>
</svg>
