<svg width="32" height="32" viewBox="0 0 32 32" fill="none" xmlns="http://www.w3.org/2000/svg">
<path d="M10.4105 11.9431C10.4105 12.162 10.3927 12.5268 10.1793 12.7639C9.94808 12.9828 9.59238 13.0011 9.37897 13.0011C8.17837 13.0011 6.51296 12.6994 5.3774 13.1652C7.11046 10.0556 10.4678 7.98919 10.446 8.16738C10.2861 9.39789 10.4105 10.7055 10.4105 11.9431ZM14.003 26.0611C14.003 24.5472 15.2124 23.3069 16.7063 23.3069C17.1509 23.3069 17.5066 23.6717 17.5066 24.1277C17.5066 24.4378 17.3465 24.6931 17.0975 24.839C16.8264 25.0059 16.4508 24.9281 16.2083 25.1491C16.0304 25.2951 15.8882 25.5322 15.8882 25.7875C15.8882 26.0611 15.9949 26.3165 16.1727 26.4989C16.4929 26.8272 16.9197 27.0096 17.3821 27.0096C18.5914 27.0096 19.5696 26.0064 19.5696 24.7661C19.5696 23.6534 18.8404 22.6684 17.8801 22.2307C16.4226 21.4833 14.1926 21.9086 14.0208 19.5676C13.7535 20.8058 13.1638 23.015 11.5665 23.015C6.74137 23.309 5.00221 19.4006 4.66602 15.2629C4.66602 14.3691 5.19956 13.7672 5.87538 13.676C7.08474 13.676 8.2941 13.676 9.50346 13.676C10.1259 13.676 10.4816 13.5118 10.7128 13.2929C11.0152 13.0011 11.0863 12.5815 11.0863 12.0891C11.0863 10.8061 11.0863 8.83333 11.0863 8.24034C11.0863 7.46591 11.7621 7 12.6336 7C13.1469 7 13.6287 7.01804 14.1275 7.14592C15.2124 7.41953 15.4436 8.55043 15.4436 8.55043C15.4436 8.55043 17.4888 8.91524 18.5203 9.09764C19.4985 9.28004 21.9172 9.44421 22.3796 11.9431C23.4645 17.8895 22.8064 23.6534 22.7531 23.6534C21.9883 29.2715 17.4354 28.9978 17.4354 28.9978C15.7804 28.9978 14.003 27.8684 14.003 26.0611ZM19.3384 16.3755C18.7515 16.3208 18.2535 16.5579 18.0757 17.0139C17.8237 17.6601 20.4233 18.1975 20.4233 17.3058C20.3521 16.7951 19.9253 16.4485 19.3384 16.3755Z" fill="white"/>
</svg>
