<svg width="14" height="14" viewBox="0 0 14 14" fill="none" xmlns="http://www.w3.org/2000/svg">
<path d="M12.2896 5.40039C12.6696 5.74039 12.9896 6.07039 13.2296 6.33039C13.3954 6.51414 13.4872 6.75287 13.4872 7.00039C13.4872 7.24791 13.3954 7.48664 13.2296 7.67039C12.1796 8.80039 9.78961 11.0004 6.99961 11.0004H6.59961" stroke="#8B898C" stroke-linecap="round" stroke-linejoin="round"/>
<path d="M3.86936 10.13C2.71099 9.48125 1.66433 8.65067 0.769358 7.67C0.603518 7.48625 0.511719 7.24752 0.511719 7C0.511719 6.75248 0.603518 6.51375 0.769358 6.33C1.81936 5.2 4.20936 3 6.99936 3C8.09913 3.02299 9.17547 3.32216 10.1294 3.87" stroke="#8B898C" stroke-linecap="round" stroke-linejoin="round"/>
<path d="M12.5 1.5L1.5 12.5" stroke="#8B898C" stroke-linecap="round" stroke-linejoin="round"/>
<path d="M5.59 8.41C5.21441 8.03665 5.00223 7.52958 5 7C5 6.46957 5.21071 5.96086 5.58579 5.58579C5.96086 5.21071 6.46957 5 7 5C7.52958 5.00223 8.03665 5.21441 8.41 5.59" stroke="#8B898C" stroke-linecap="round" stroke-linejoin="round"/>
<path d="M8.74 8C8.56198 8.3043 8.3067 8.55614 8 8.73" stroke="#8B898C" stroke-linecap="round" stroke-linejoin="round"/>
</svg>
