<svg width="24" height="24" viewBox="0 0 24 24" fill="none" xmlns="http://www.w3.org/2000/svg">
<g clip-path="url(#clip0_3889_14121)">
<path d="M18.0019 13.7178C18.0059 12.6479 17.7238 11.5965 17.1848 10.6723C16.6458 9.7482 15.8694 8.98499 14.9363 8.46178C14.0031 7.93857 12.947 7.67439 11.8774 7.69661C10.8077 7.71882 9.76352 8.02663 8.85287 8.58814C7.94222 9.14965 7.19826 9.94443 6.69808 10.8902C6.1979 11.8359 5.95968 12.8981 6.0081 13.9669C6.05653 15.0356 6.38983 16.072 6.97349 16.9686C7.55715 17.8652 8.36993 18.5895 9.32763 19.0663V22.0149C9.3321 22.1892 9.40451 22.3549 9.52941 22.4766C9.65431 22.5983 9.82181 22.6664 9.9962 22.6663H14.0076C14.182 22.6664 14.3495 22.5983 14.4744 22.4766C14.5993 22.3549 14.6717 22.1892 14.6762 22.0149V19.0149C15.664 18.5232 16.4971 17.7685 17.0839 16.834C17.6706 15.8994 17.9883 14.8212 18.0019 13.7178V13.7178Z" stroke="white" stroke-width="1.71429" stroke-linecap="round" stroke-linejoin="round"/>
<path d="M12.002 1.39062V3.96205" stroke="white" stroke-width="1.71429" stroke-linecap="round" stroke-linejoin="round"/>
<path d="M18.8543 3.8418L17.0371 5.67608" stroke="white" stroke-width="1.71429" stroke-linecap="round" stroke-linejoin="round"/>
<path d="M22.7628 9.15527H20.1914" stroke="white" stroke-width="1.71429" stroke-linecap="round" stroke-linejoin="round"/>
<path d="M5.14453 3.8418L6.96167 5.67608" stroke="white" stroke-width="1.71429" stroke-linecap="round" stroke-linejoin="round"/>
<path d="M1.23438 9.15527H3.8058" stroke="white" stroke-width="1.71429" stroke-linecap="round" stroke-linejoin="round"/>
</g>
<defs>
<clipPath id="clip0_3889_14121">
<rect width="24" height="24" fill="white"/>
</clipPath>
</defs>
</svg>
