<svg width="22" height="22" viewBox="0 0 22 22" fill="none" xmlns="http://www.w3.org/2000/svg">
<g clip-path="url(#clip0_3889_14113)">
<path d="M19.6423 7.07129H2.35658C1.48871 7.07129 0.785156 7.77484 0.785156 8.64272V19.6427C0.785156 20.5106 1.48871 21.2141 2.35658 21.2141H19.6423C20.5102 21.2141 21.2137 20.5106 21.2137 19.6427V8.64272C21.2137 7.77484 20.5102 7.07129 19.6423 7.07129Z" stroke="white" stroke-width="1.71" stroke-linecap="round" stroke-linejoin="round"/>
<path d="M0.785156 13.3574H21.2137" stroke="white" stroke-width="1.71" stroke-linecap="round" stroke-linejoin="round"/>
<path d="M11 11.7861V14.929" stroke="white" stroke-width="1.71" stroke-linecap="round" stroke-linejoin="round"/>
<path d="M15.7137 7.07171C15.7137 5.8214 15.217 4.6223 14.3329 3.7382C13.4488 2.8541 12.2497 2.35742 10.9994 2.35742V2.35742C9.74914 2.35742 8.55004 2.8541 7.66594 3.7382C6.78184 4.6223 6.28516 5.8214 6.28516 7.07171" stroke="white" stroke-width="1.71" stroke-linecap="round" stroke-linejoin="round"/>
</g>
<defs>
<clipPath id="clip0_3889_14113">
<rect width="22" height="22" fill="white"/>
</clipPath>
</defs>
</svg>
