<svg width="27" height="27" viewBox="0 0 27 27" fill="none" xmlns="http://www.w3.org/2000/svg">
<path d="M21.2136 10.6074H5.78502C4.7199 10.6074 3.85645 11.4709 3.85645 12.536V24.1074C3.85645 25.1725 4.7199 26.036 5.78502 26.036H21.2136C22.2787 26.036 23.1422 25.1725 23.1422 24.1074V12.536C23.1422 11.4709 22.2787 10.6074 21.2136 10.6074Z" stroke="#000001" stroke-opacity="0.3" stroke-width="1.92857" stroke-linecap="round" stroke-linejoin="round"/>
<path d="M20.249 10.6077V7.71484C20.249 5.92463 19.5379 4.20774 18.272 2.94187C17.0061 1.676 15.2892 0.964844 13.499 0.964844C11.7088 0.964844 9.99192 1.676 8.72605 2.94187C7.46018 4.20774 6.74902 5.92463 6.74902 7.71484V10.6077" stroke="#000001" stroke-opacity="0.3" stroke-width="1.92857" stroke-linecap="round" stroke-linejoin="round"/>
<path d="M13.4994 19.286C14.032 19.286 14.4637 18.8543 14.4637 18.3217C14.4637 17.7891 14.032 17.3574 13.4994 17.3574C12.9669 17.3574 12.5352 17.7891 12.5352 18.3217C12.5352 18.8543 12.9669 19.286 13.4994 19.286Z" stroke="#000001" stroke-opacity="0.3" stroke-width="1.92857" stroke-linecap="round" stroke-linejoin="round"/>
</svg>
