<svg width="19" height="19" viewBox="0 0 19 19" fill="none" xmlns="http://www.w3.org/2000/svg"
>
<g clip-path="url(#clip0_1705_2149)">
<path d="M18.0726 7.26088L15.0017 4.19C14.8524 4.0458 14.6524 3.966 14.4448 3.9678C14.2372 3.96961 14.0387 4.05287 13.8919 4.19965C13.7451 4.34643 13.6619 4.54499 13.6601 4.75256C13.6583 4.96013 13.7381 5.16011 13.8823 5.30942L16.9531 8.3803C17.0444 8.47334 17.1241 8.577 17.1906 8.68904C17.1788 8.68904 17.1693 8.68271 17.1574 8.68271L4.74089 8.70805C4.53092 8.70805 4.32956 8.79145 4.18109 8.93992C4.03263 9.08839 3.94922 9.28975 3.94922 9.49971C3.94922 9.70967 4.03263 9.91104 4.18109 10.0595C4.32956 10.208 4.53092 10.2914 4.74089 10.2914L17.1526 10.266C17.1748 10.266 17.193 10.255 17.2144 10.2534C17.1442 10.3873 17.0551 10.5105 16.95 10.6191L13.8791 13.69C13.8035 13.763 13.7432 13.8504 13.7017 13.947C13.6602 14.0436 13.6383 14.1474 13.6374 14.2526C13.6365 14.3577 13.6566 14.4619 13.6964 14.5592C13.7362 14.6565 13.7949 14.7449 13.8693 14.8192C13.9436 14.8936 14.032 14.9523 14.1293 14.9922C14.2266 15.032 14.3308 15.052 14.436 15.0511C14.5411 15.0502 14.645 15.0283 14.7415 14.9868C14.8381 14.9453 14.9255 14.885 14.9985 14.8094L18.0694 11.7385C18.663 11.1447 18.9965 10.3394 18.9965 9.49971C18.9965 8.66003 18.663 7.85472 18.0694 7.26088H18.0726Z" fill="white" />
<path d="M5.54167 17.4167H3.95833C3.32844 17.4167 2.72435 17.1664 2.27895 16.721C1.83356 16.2756 1.58333 15.6716 1.58333 15.0417V3.95833C1.58333 3.32844 1.83356 2.72435 2.27895 2.27895C2.72435 1.83356 3.32844 1.58333 3.95833 1.58333H5.54167C5.75163 1.58333 5.95299 1.49993 6.10146 1.35146C6.24993 1.20299 6.33333 1.00163 6.33333 0.791667C6.33333 0.581704 6.24993 0.38034 6.10146 0.231874C5.95299 0.0834075 5.75163 0 5.54167 0L3.95833 0C2.9089 0.00125705 1.90282 0.418698 1.16076 1.16076C0.418698 1.90282 0.00125705 2.9089 0 3.95833L0 15.0417C0.00125705 16.0911 0.418698 17.0972 1.16076 17.8392C1.90282 18.5813 2.9089 18.9987 3.95833 19H5.54167C5.75163 19 5.95299 18.9166 6.10146 18.7681C6.24993 18.6197 6.33333 18.4183 6.33333 18.2083C6.33333 17.9984 6.24993 17.797 6.10146 17.6485C5.95299 17.5001 5.75163 17.4167 5.54167 17.4167Z" fill="white" />
</g>
<defs>
<clipPath id="clip0_1705_2149">
<rect width="19" height="19" fill="white"/>
</clipPath>
</defs>
</svg>
