<svg width="25" height="26" viewBox="0 0 25 26" fill="none" xmlns="http://www.w3.org/2000/svg">
<path d="M25.0105 11.1964H17.3915L23.9896 7.38644L22.6812 5.11882L16.0822 8.92876L19.8909 2.33015L17.624 1.02126L13.8145 7.61821V0H11.196V7.61904L7.38648 1.02126L5.11878 2.33015L8.92745 8.92709L2.3302 5.11882L1.02092 7.38644L7.619 11.1964H0V13.815H7.61817L1.02092 17.6249L2.32937 19.8925L8.92828 16.0826L5.11878 22.6812L7.38565 23.9901L11.196 17.3923V25.0105H13.8145V17.2289L17.6941 23.9484L19.8201 22.7212L15.9397 16.0001L22.6795 19.8917L23.9888 17.6241L17.3915 13.8141H25.0097L25.0105 11.1964ZM12.5053 16.0651C12.0378 16.0652 11.575 15.9731 11.1431 15.7942C10.7112 15.6153 10.3188 15.3531 9.98821 15.0225C9.65764 14.6919 9.39541 14.2994 9.21648 13.8674C9.03755 13.4354 8.94542 12.9724 8.94537 12.5048C8.94531 12.0373 9.03733 11.5742 9.21616 11.1422C9.39499 10.7102 9.65713 10.3176 9.98762 9.98695C10.3181 9.65628 10.7105 9.39395 11.1423 9.21496C11.5741 9.03597 12.037 8.94382 12.5044 8.94376C13.4485 8.94365 14.3539 9.31869 15.0215 9.98636C15.6891 10.654 16.0642 11.5597 16.0643 12.504C16.0644 13.4484 15.6895 14.3541 15.0221 15.0219C14.3546 15.6897 13.4493 16.065 12.5053 16.0651Z" fill="white"/>
</svg>
