<svg width="44" height="44" viewBox="0 0 44 44" fill="none" xmlns="http://www.w3.org/2000/svg">
<path d="M21.9365 2.73047C11.3496 2.73047 2.74219 11.3018 2.74219 21.8442C2.74219 32.3866 11.3496 40.9579 21.9365 40.9579C32.5233 40.9579 41.1307 32.3866 41.1307 21.8442C41.1307 11.3018 32.5233 2.73047 21.9365 2.73047Z" fill="#FFE01B"/>
<path d="M13.5307 26.8275C13.111 26.1948 14.1666 25.2372 13.7373 24.4331C13.4898 23.9693 13.0852 23.6804 12.5994 23.6197C12.1331 23.5615 11.6527 23.7315 11.3466 24.0637C10.8632 24.5875 10.788 25.3005 10.8815 25.5528C10.9157 25.6453 10.9695 25.6706 11.008 25.676C11.2713 25.7105 11.4194 25.0376 11.5103 24.8975C11.7617 24.5111 12.3324 24.3943 12.7265 24.6482C13.4738 25.1295 12.8258 25.9074 12.8817 26.5644C12.9361 27.2042 13.3364 27.4613 13.6957 27.4883C14.0453 27.5015 14.2898 27.3081 14.3515 27.167C14.4995 26.83 13.8761 27.3482 13.5307 26.8275Z" fill="black"/>
<path d="M29.1451 21.0193C28.9491 20.9923 28.7348 20.9929 28.512 21.0193C28.3427 20.8066 28.1911 20.4624 28.1056 20.0605C27.9534 19.3457 27.9693 18.8279 28.394 18.7606C28.8187 18.6933 29.0241 19.1258 29.1763 19.8407C29.2783 20.3212 29.2588 20.7628 29.1451 21.0193Z" fill="black"/>
<path d="M24.4931 21.4446C24.5099 21.6064 24.5158 21.7703 24.5111 21.9211C24.922 21.9451 25.2131 22.1395 25.2906 22.2628C25.3304 22.3265 25.3145 22.3679 25.3016 22.3871C25.2591 22.453 25.1679 22.4429 24.9769 22.4215C24.8101 22.4029 24.6305 22.3865 24.4438 22.395C24.3422 22.7053 24.0409 22.7343 23.8293 22.5049C23.6814 22.5497 23.391 22.7344 23.3045 22.5337C23.3037 22.4341 23.4083 22.2894 23.5977 22.1615C23.4684 21.916 23.3818 21.653 23.3306 21.3808C23.0621 21.429 22.8205 21.5039 22.6312 21.5626C22.5423 21.5902 22.1907 21.7483 22.1495 21.5701C22.122 21.4469 22.3145 21.2439 22.518 21.0973C22.7454 20.9365 22.9976 20.8223 23.2591 20.7563C23.2535 20.3686 23.3529 20.0981 23.6357 20.0533C23.9865 19.9977 24.2039 20.2667 24.3543 20.7646C24.7782 20.8819 25.2016 21.1727 25.3884 21.4734C25.4612 21.5899 25.4752 21.68 25.4282 21.7275C25.3107 21.8487 24.6598 21.4972 24.4931 21.4446Z" fill="black"/>
<path d="M27.2805 23.1872C27.5494 23.317 27.8452 23.2659 27.9418 23.0731C28.0383 22.8803 27.8984 22.619 27.6295 22.4892C27.3606 22.3594 27.0648 22.4105 26.9682 22.6033C26.8717 22.7962 27.0116 23.0575 27.2805 23.1872Z" fill="black"/>
<path d="M28.6042 22.2297C28.6091 21.9347 28.7906 21.6993 29.0087 21.7029C29.2269 21.7071 29.3999 21.9486 29.395 22.2429C29.3901 22.5373 29.2086 22.7727 28.9904 22.7691C28.7722 22.7655 28.5993 22.524 28.6042 22.2297Z" fill="black"/>
<path fill-rule="evenodd" clip-rule="evenodd" d="M34.5206 25.8418C34.5188 25.8357 34.5248 25.8568 34.5206 25.8418C34.9587 25.8418 35.6469 26.3368 35.6469 27.5328C35.6469 28.7228 35.1445 30.0708 35.026 30.37C33.2164 34.6327 28.8976 37.0055 23.7531 36.8553C18.9569 36.7153 14.8666 34.2278 13.0766 30.1724C11.9943 30.1736 10.8784 29.7056 10.0302 28.9667C9.13607 28.1882 8.58483 27.1808 8.47727 26.1301C8.39355 25.312 8.49561 24.5509 8.75656 23.8871L7.75125 23.0497C3.15067 19.2315 17.5397 3.51082 22.1415 7.45632C22.1647 7.47614 23.7072 8.96351 23.7109 8.96712C25.9298 8.04106 31.875 6.27788 31.8817 10.3824C31.8841 11.7454 31.0005 13.3349 29.5845 14.7772C31.2209 16.269 30.7894 18.3879 31.05 20.332L31.6183 20.487C32.7018 20.7856 33.4725 21.1839 33.8495 21.5731C34.2266 21.9618 34.4136 22.3384 34.4814 22.78C34.545 23.1362 34.5364 23.7651 34.0585 24.4686C34.2306 24.9223 34.3877 25.3748 34.5206 25.8418ZM12.9954 29.0664C13.1561 29.07 13.3156 29.0598 13.472 29.0334C15.1533 28.7517 15.5933 26.9567 15.3164 25.1942C15.0035 23.2041 13.634 22.5024 12.7045 22.4526C12.4459 22.4394 12.2058 22.4622 12.0078 22.5012C10.3485 22.8298 9.41169 24.2175 9.59625 26.0196C9.76309 27.6506 11.4412 29.0256 12.9954 29.0664ZM9.23752 22.9902C9.79426 22.1955 10.7042 21.6206 11.737 21.4229C13.0516 17.9544 15.2468 14.7586 18.1521 12.5594C20.3081 10.7915 22.6335 9.52338 22.6335 9.52338C22.6335 9.52338 21.3813 8.09608 21.003 7.99096C18.6764 7.37342 13.6517 10.7795 10.4433 15.28C9.14524 17.1008 7.28679 20.3254 8.17537 21.984C8.28477 22.1895 8.90506 22.7175 9.23752 22.9902ZM28.1 28.2699C28.1037 28.3071 28.0805 28.3456 28.0469 28.3594C28.0469 28.3594 26.1774 29.2142 23.2079 28.3113C23.3147 29.1977 24.3941 29.5336 25.1483 29.6551C28.8279 30.2775 32.2679 28.2092 33.0422 27.6884C33.1752 27.599 33.0406 27.8289 33.0166 27.8626C32.0687 29.0646 29.5203 30.4565 26.2049 30.4559C24.759 30.4553 23.3137 29.9549 22.7832 29.1854C21.96 27.9918 22.7423 26.2491 24.1142 26.4305C26.4333 26.6879 28.8108 26.4945 30.9577 25.515C32.8296 24.6608 33.5366 23.7213 33.4303 22.9602C33.2654 21.7806 31.5092 21.5962 30.6216 21.3094C30.2353 21.1839 30.0446 21.0835 30.0013 20.3693C29.9823 20.0575 29.9273 18.9696 29.9071 18.5197C29.8717 17.7322 29.7751 16.6551 29.0956 16.2105C28.9183 16.0946 28.7216 16.0387 28.5144 16.0279C28.3492 16.0201 28.2512 16.0427 28.1986 16.0548C28.1868 16.0575 28.1772 16.0597 28.1697 16.061C27.8028 16.1223 27.5779 16.3072 27.3127 16.5252C27.2974 16.5377 27.282 16.5504 27.2664 16.5632C26.4188 17.2576 25.7032 17.3711 24.9069 17.3375C24.6589 17.3272 24.4033 17.3025 24.1336 17.2765C23.8857 17.2525 23.6258 17.2274 23.3491 17.2113L23.0112 17.1921C21.6777 17.1248 20.2476 18.2566 20.0099 19.8641C19.7443 21.6584 20.7514 22.7574 21.4064 23.4722C21.5683 23.6488 21.7086 23.802 21.803 23.9363C21.8635 24.0174 21.9337 24.1316 21.9337 24.2403C21.9337 24.3701 21.8482 24.4728 21.7645 24.5605C20.4041 25.9355 19.969 28.1203 20.4817 29.9411C20.5459 30.1682 20.6271 30.3856 20.7231 30.5935C21.9258 33.3561 25.6573 34.6429 29.3021 33.4727C31.8566 32.6525 34.1135 30.6706 34.5731 27.9365C34.6825 27.224 34.5218 26.9489 34.303 26.8162C34.0714 26.6762 33.7939 26.7249 33.7939 26.7249C33.7939 26.7249 33.6674 25.8736 33.3093 25.0999C32.2465 25.9241 30.8788 26.5032 29.8375 26.7969C28.169 27.2674 26.3668 27.4506 24.6427 27.2288C23.9434 27.1388 23.4735 27.0783 23.2721 27.7214C25.5718 28.5492 28.0059 28.1948 28.0059 28.1948C28.053 28.19 28.0951 28.2236 28.1 28.2699ZM21.465 12.2062C20.2073 12.8387 18.8029 13.9651 17.6625 15.2608C17.6222 15.3071 17.6821 15.3707 17.7316 15.3353C18.7167 14.6307 20.0673 13.9759 21.8366 13.5518C23.8185 13.0766 25.7264 13.276 26.8918 13.5386C26.9505 13.5518 26.9872 13.4527 26.9352 13.4238C26.1652 12.9991 24.9833 12.7108 24.1448 12.7048C24.1039 12.7042 24.0806 12.6573 24.1051 12.6249C24.2499 12.4332 24.4485 12.244 24.63 12.1071C24.6704 12.0758 24.6459 12.0115 24.5946 12.0145C23.5516 12.0775 21.1692 13.1592 21.1778 13.1199C21.2389 12.8315 21.4314 12.4507 21.531 12.2729C21.5548 12.2308 21.5084 12.1845 21.465 12.2062Z" fill="black"/>
</svg>
