<svg width="143" height="36" viewBox="0 0 143 36" fill="none" xmlns="http://www.w3.org/2000/svg">
<path d="M53.8008 16.8477V18.8867H42.1055V16.8477H53.8008ZM49.043 11.8672V24.2891H46.875V11.8672H49.043Z" fill="white"/>
<path d="M107.801 16.8477V18.8867H96.1055V16.8477H107.801ZM103.043 11.8672V24.2891H100.875V11.8672H103.043Z" fill="white"/>
<circle cx="17.5" cy="18.5" r="15.3125" fill="#3290E8"/>
<path fill-rule="evenodd" clip-rule="evenodd" d="M24.0625 9.75H10.9375C9.74501 9.74814 8.7521 10.7472 8.75 11.9375V25.0625C8.75 26.2705 9.72965 27.25 10.9375 27.25H24.0625C25.255 27.2519 26.2479 26.2528 26.25 25.0625V11.9375C26.25 10.7295 25.2708 9.75 24.0625 9.75ZM19.8328 12.9583C19.8328 12.6365 20.0945 12.375 20.4167 12.375C20.7389 12.375 21 12.6365 21 12.9583V20.7522C21 21.074 20.7384 21.3355 20.4167 21.3355C20.1078 21.3357 19.8341 21.062 19.8333 20.7522L19.8328 12.9583ZM16.9162 12.6633C16.9162 12.341 17.1778 12.0799 17.5 12.0799C17.8222 12.0799 18.0838 12.341 18.0838 12.6633V21.1216C18.0838 21.4439 17.8222 21.7049 17.5 21.7049C17.1912 21.7052 16.9174 21.4315 16.9167 21.1216L16.9162 12.6633ZM14 12.9583C14 12.6365 14.2616 12.375 14.5833 12.375C14.9055 12.375 15.1667 12.6365 15.1667 12.9583V20.7522C15.1667 21.074 14.9055 21.3355 14.5833 21.3355C14.2745 21.3357 14.0008 21.062 14 20.7522V12.9583ZM11.0833 14.125C11.0833 13.8027 11.3445 13.5417 11.6667 13.5417C11.9889 13.5417 12.25 13.8027 12.25 14.125V19.3716C12.25 19.6939 11.9884 19.9549 11.6667 19.9549C11.3486 19.9555 11.0839 19.689 11.0833 19.3716V14.125ZM23.7132 23.0228C23.6235 23.1006 21.4622 24.9133 17.5 24.9133C13.5378 24.9133 11.3779 23.1001 11.2868 23.0223C11.0458 22.8158 11.0173 22.4411 11.2238 22.2003C11.4252 21.9659 11.8095 21.9358 12.0446 22.1361C12.0785 22.1648 14.0082 23.7466 17.4995 23.7466C21.0344 23.7466 22.9346 22.1531 22.953 22.1376C23.1878 21.9358 23.5735 21.9652 23.7752 22.2003C23.9831 22.4406 23.955 22.8164 23.7132 23.0228ZM23.9167 19.3721C23.9167 19.6939 23.655 19.9554 23.3333 19.9554C23.0153 19.9559 22.7505 19.6895 22.75 19.3721V14.125C22.75 13.8027 23.0111 13.5417 23.3328 13.5417C23.655 13.5417 23.9167 13.8027 23.9167 14.125V19.3721Z" fill="white"/>
<path d="M139.41 16.7681C141.044 16.7681 142.369 15.4434 142.369 13.8092V13.6199C142.369 12.0903 141.129 10.8502 139.599 10.8502C138.069 10.8502 136.829 12.0903 136.829 13.6199V16.7681H139.41ZM131.844 16.7681C133.374 16.7681 134.614 15.5281 134.614 13.9984V5.33415C134.614 3.80449 133.374 2.56445 131.844 2.56445C130.314 2.56445 129.074 3.80449 129.074 5.33415V13.9984C129.074 15.5281 130.314 16.7681 131.844 16.7681Z" fill="#2EB67D"/>
<path d="M116.524 19.1372C114.89 19.1372 113.565 20.4619 113.565 22.0961V22.2853C113.565 23.815 114.805 25.055 116.335 25.055C117.864 25.055 119.104 23.815 119.104 22.2854V19.1372H116.524ZM124.09 19.1372C122.56 19.1372 121.32 20.3772 121.32 21.9069V30.5711C121.32 32.1008 122.56 33.3408 124.09 33.3408C125.619 33.3408 126.859 32.1008 126.859 30.5711V21.9069C126.859 20.3772 125.619 19.1372 124.09 19.1372Z" fill="#E01E5A"/>
<path d="M129.075 30.5714C129.075 32.101 130.315 33.3409 131.845 33.3409C133.374 33.3409 134.614 32.101 134.614 30.5714L134.614 30.3817C134.614 28.7474 133.289 27.4225 131.655 27.4225L129.075 27.4225L129.075 30.5714ZM129.075 22.0959C129.075 23.7302 130.4 25.0551 132.034 25.0551L139.41 25.0551C141.044 25.0551 142.369 23.7302 142.369 22.0959C142.369 20.4616 141.044 19.1367 139.41 19.1367L132.034 19.1367C130.4 19.1367 129.075 20.4616 129.075 22.0959Z" fill="#ECB22E"/>
<path d="M126.859 5.33384C126.859 3.80431 125.619 2.56438 124.089 2.56438C122.56 2.56438 121.32 3.80431 121.32 5.33384L121.32 5.52359C121.32 7.15791 122.644 8.48279 124.279 8.48279L126.859 8.48279L126.859 5.33384ZM126.859 13.8094C126.859 12.175 125.534 10.8501 123.899 10.8501L116.524 10.8501C114.889 10.8501 113.564 12.175 113.564 13.8094C113.564 15.4437 114.889 16.7686 116.524 16.7686L123.899 16.7686C125.534 16.7686 126.859 15.4437 126.859 13.8094Z" fill="#36C5F0"/>
<path d="M86.9667 24.9521C86.9712 25.8054 86.6092 26.6196 85.9728 27.1879C85.3363 27.7563 84.4865 28.0241 83.6391 27.9235C82.1143 27.6978 80.9969 26.3709 81.0341 24.83V7.11368C80.9973 5.57105 82.1174 4.2435 83.6442 4.0202C84.4908 3.92111 85.3391 4.18968 85.9744 4.75785C86.6097 5.32602 86.971 6.13928 86.9667 6.99157V24.9521Z" fill="#F9AB00"/>
<path d="M68.3003 22.0162C69.9385 22.0162 71.2666 23.3442 71.2666 24.9825C71.2666 26.6207 69.9385 27.9487 68.3003 27.9487C66.662 27.9487 65.334 26.6207 65.334 24.9825C65.334 23.3442 66.662 22.0162 68.3003 22.0162ZM76.1052 13.0257C74.4592 13.116 73.1821 14.4966 73.2203 16.1447V24.1124C73.2203 26.2748 74.1718 27.5875 75.5659 27.8673C76.4411 28.0447 77.3497 27.8191 78.0402 27.2528C78.7307 26.6866 79.13 25.8398 79.1275 24.9468V16.0073C79.1289 15.209 78.8096 14.4436 78.2414 13.883C77.6731 13.3223 76.9034 13.0135 76.1052 13.0257Z" fill="#E37400"/>
</svg>
