<svg width="26" height="33" viewBox="0 0 26 33" fill="none" xmlns="http://www.w3.org/2000/svg">
<path d="M18.5398 15.0305C18.5398 16.581 17.9238 18.068 16.8275 19.1643C15.7311 20.2607 14.2442 20.8766 12.6937 20.8766C11.1432 20.8766 9.65627 20.2607 8.55993 19.1643C7.46358 18.068 6.84766 16.581 6.84766 15.0305V6.84606C6.84766 5.29559 7.46358 3.80862 8.55993 2.71227C9.65627 1.61592 11.1432 1 12.6937 1C14.2442 1 15.7311 1.61592 16.8275 2.71227C17.9238 3.80862 18.5398 5.29559 18.5398 6.84606V15.0305Z" stroke="#000001" stroke-opacity="0.63" stroke-width="2" stroke-linecap="round" stroke-linejoin="round"/>
<path d="M24.3843 16.1992C24.3873 17.582 24.1173 18.9517 23.5895 20.2298C23.0618 21.5079 22.2868 22.6692 21.309 23.6469C20.3313 24.6247 19.17 25.3997 17.8919 25.9274C16.6138 26.4551 15.2441 26.7252 13.8613 26.7221H11.5229C10.1402 26.7252 8.77043 26.4551 7.49234 25.9274C6.21425 25.3997 5.05299 24.6247 4.07524 23.6469C3.09748 22.6692 2.32249 21.5079 1.79476 20.2298C1.26702 18.9517 0.996943 17.582 1.00003 16.1992V16.1992" stroke="#000001" stroke-opacity="0.63" stroke-width="2" stroke-linecap="round" stroke-linejoin="round"/>
<path d="M12.6914 26.7227V31.3995" stroke="#000001" stroke-opacity="0.63" stroke-width="2" stroke-linecap="round" stroke-linejoin="round"/>
</svg>
