<svg width="35" height="45" viewBox="0 0 35 45" fill="none" xmlns="http://www.w3.org/2000/svg">
<path d="M33.9777 7.68584L34.0706 43.3735C34.0728 44.2229 33.3836 44.9156 32.5339 44.9178L4.22254 44.9915C3.37286 44.9937 2.68001 44.3047 2.6778 43.4552L2.57139 2.58033C2.56918 1.7309 3.25844 1.03824 4.10812 1.03603L27.2308 0.975836L33.9777 7.68584Z" fill="#F8FAFB"/>
<path d="M8.98899 39.4297L26.7756 39.3834C27.3761 39.3818 27.8506 38.8935 27.8491 38.3046L27.8028 20.5231C27.8012 19.9228 27.3128 19.4484 26.7237 19.4499L8.9371 19.4962C8.33666 19.4978 7.86211 19.986 7.86364 20.575L7.90993 38.3565C7.91149 38.9568 8.39988 39.4312 8.98899 39.4297Z" fill="#41C0E3"/>
<path d="M17.876 36.7446C21.9117 36.7341 25.1748 33.455 25.1643 29.4204C25.1538 25.3859 21.8737 22.1238 17.838 22.1343C13.8023 22.1448 10.5393 25.4239 10.5498 29.4585C10.5603 33.493 13.8404 36.7551 17.876 36.7446Z" fill="white"/>
<path d="M33.9784 7.68576L34.0713 43.3734C34.0735 44.2229 33.3843 44.9155 32.5346 44.9177L30.3481 44.9234C31.1977 44.9212 31.887 44.2286 31.8848 43.3791L31.7919 7.69145L25.0449 0.981445L27.2428 0.975724L33.9784 7.68576Z" fill="#E2E1DE"/>
<path d="M33.9789 7.68559L28.7902 7.6991C27.9405 7.70131 27.2476 7.01223 27.2454 6.16279L27.2319 0.975586L33.9789 7.68559Z" fill="#C9C9C9"/>
<path d="M14.287 16.0052L2.61809 16.0356L2.61328 14.1895L15.4265 14.1561L15.4283 14.8696C15.4186 15.4926 14.9101 16.0036 14.287 16.0052Z" fill="#E2E1DE"/>
<path d="M15.449 14.1553L0.0301752 14.1954L0.01393 7.95491C0.0126917 7.47922 0.396907 7.10447 0.861399 7.10326L15.4306 7.06533C15.9064 7.06409 16.2812 7.4482 16.2825 7.91256L16.2965 13.3036C16.2977 13.768 15.9135 14.1541 15.449 14.1553Z" fill="#7CC8FB"/>
<path d="M16.2962 13.191L16.2965 13.2929C16.2977 13.7686 15.9135 14.1434 15.449 14.1446L0.0301753 14.1847L0.01393 7.94416C0.0126917 7.46848 0.396907 7.09372 0.861399 7.09251L1.30322 7.09136L1.309 9.31124C1.31463 11.4745 3.07522 13.2254 5.23907 13.2197L16.2962 13.191Z" fill="#41C0E3"/>
<path d="M0.0302734 14.1963L2.62094 17.1343L2.61328 14.1896L0.0302734 14.1963Z" fill="#3586CB"/>
<path d="M1.05691 12.8907L1.05496 12.1432L1.62142 12.1417L1.61381 9.21967L1.04736 9.22115L1.04541 8.47363L3.25458 8.46788L4.22427 11.0477L5.19186 8.46284L7.44633 8.45697L7.44828 9.20449L6.88183 9.20596L6.88943 12.128L7.45589 12.1266L7.45783 12.874L5.23735 12.8798L5.23541 12.1323L5.76787 12.1309L5.76026 9.20888L5.65828 9.20914L4.29703 12.8823L3.82122 12.8835L2.4295 9.21755L2.32755 9.21782L2.33515 12.1399L2.91295 12.1384L2.91489 12.8859L1.05691 12.8907Z" fill="white"/>
<path d="M10.165 12.1196L10.167 12.8671L7.84451 12.8731L7.84256 12.1256L8.40901 12.1242L8.40141 9.2021L7.83495 9.20357L7.83301 8.45605L10.1555 8.45001C10.6993 8.44859 11.1187 8.5721 11.414 8.83183C11.7092 9.09156 11.8574 9.43095 11.8585 9.85C11.8591 10.0992 11.803 10.3145 11.7016 10.5186C11.6002 10.7228 11.4646 10.8704 11.3063 10.984C11.148 11.0977 10.9556 11.1661 10.7517 11.2007C10.5479 11.2352 10.2874 11.2585 9.97016 11.2593L9.55099 11.2604L9.55323 12.1212L10.165 12.1196ZM9.54908 10.5242L9.71901 10.5238C10.1155 10.5228 10.3646 10.4542 10.4776 10.3293C10.5905 10.2044 10.6468 10.0457 10.6463 9.85316C10.6458 9.6946 10.6115 9.55877 10.5319 9.44571C10.4523 9.33266 10.3615 9.26494 10.2595 9.24255C10.1575 9.22016 9.98748 9.19797 9.7609 9.19856L9.54563 9.19912L9.54908 10.5242Z" fill="white"/>
<path d="M15.2399 12.1975L15.2416 12.8431L13.4743 12.8477L13.4726 12.2021L13.9598 12.2008L13.9583 11.6345L12.3382 11.6387C12.2583 11.4124 12.1785 11.2201 12.0988 11.0731L13.9837 8.36129L14.8561 8.35901L14.8631 11.0319L15.2935 11.0308L15.2951 11.631L14.8646 11.6322L14.8661 12.1985L15.2399 12.1975ZM13.9567 11.0343L13.9527 9.49396L12.8578 11.0371L13.9567 11.0343Z" fill="white"/>
<path d="M15.4477 26.3768L15.4637 32.5154C15.466 33.4214 16.5097 33.9397 17.2333 33.3829L21.2585 30.303C21.8351 29.8598 21.8328 28.9991 21.2539 28.5589L17.2128 25.5001C16.4863 24.947 15.4453 25.4707 15.4477 26.3768Z" fill="#41C0E3"/>
</svg>
