<svg width="22" height="23" viewBox="0 0 22 23" fill="none" xmlns="http://www.w3.org/2000/svg">
<path d="M9.42969 21.8203H12.5725" stroke="white" stroke-width="1.57143" stroke-linecap="round" stroke-linejoin="round"/>
<path d="M17.286 10.0347C17.286 8.36766 16.6238 6.76887 15.445 5.59007C14.2662 4.41127 12.6674 3.74902 11.0003 3.74902C9.3332 3.74902 7.73441 4.41127 6.55561 5.59007C5.37681 6.76887 4.71456 8.36766 4.71456 10.0347V15.5347C4.71456 16.1599 4.46622 16.7594 4.02417 17.2015C3.58212 17.6435 2.98258 17.8919 2.35742 17.8919H19.6431C19.018 17.8919 18.4184 17.6435 17.9764 17.2015C17.5343 16.7594 17.286 16.1599 17.286 15.5347V10.0347Z" stroke="white" stroke-width="1.57143" stroke-linecap="round" stroke-linejoin="round"/>
<circle cx="16" cy="3" r="3" fill="#2EB67D"/>
</svg>
