<svg width="28" height="28" viewBox="0 0 28 28" fill="none" xmlns="http://www.w3.org/2000/svg">
<g clip-path="url(#clip0_2864_2019)">
<path fill-rule="evenodd" clip-rule="evenodd" d="M5.0015 25.5656L1.99206 21.8165C1.26799 20.9145 0.875 19.8053 0.875 18.6636V5.08811C0.875 3.37806 2.24314 1.9591 4.00812 1.8386L17.9656 0.88566C18.9796 0.81643 19.9875 1.08595 20.8204 1.64912L25.7243 4.96467C26.6021 5.55817 27.125 6.52836 27.125 7.56372V22.9978C27.125 24.6713 25.7797 26.0569 24.0517 26.1633L8.56042 27.1168C7.18142 27.2017 5.84849 26.6207 5.0015 25.5656Z" fill="white"/>
<path d="M9.84159 11.8807V11.703C9.84159 11.2524 10.2024 10.8788 10.6675 10.8477L14.0549 10.6216L18.7394 17.5199V11.4655L17.5336 11.3047V11.2203C17.5336 10.7645 17.9027 10.3884 18.3737 10.3642L21.4559 10.2063V10.6499C21.4559 10.8581 21.3011 11.0362 21.0888 11.0721L20.3471 11.1976V21.0026L19.4163 21.3227C18.6386 21.5901 17.7728 21.3038 17.3277 20.6321L12.7798 13.7694V20.3194L14.1796 20.5873L14.1601 20.7172C14.099 21.1239 13.7479 21.4315 13.3231 21.4504L9.84159 21.6053C9.79557 21.168 10.1234 20.7767 10.5756 20.7292L11.0335 20.6811V11.9477L9.84159 11.8807Z" fill="black"/>
<path fill-rule="evenodd" clip-rule="evenodd" d="M18.09 2.59526L4.13255 3.5482C3.2965 3.60528 2.64844 4.27742 2.64844 5.08744V18.663C2.64844 19.4241 2.91043 20.1635 3.39314 20.7649L6.40258 24.5139C6.88915 25.1201 7.65488 25.4539 8.44707 25.4051L23.9383 24.4515C24.7323 24.4026 25.3504 23.766 25.3504 22.9971V7.56305C25.3504 7.08735 25.1102 6.64158 24.7068 6.3689L19.8029 3.05334C19.3031 2.71544 18.6984 2.55372 18.09 2.59526ZM4.82467 5.2992C4.63055 5.15548 4.72293 4.85606 4.9668 4.83857L18.1839 3.89055C18.605 3.86034 19.0235 3.97631 19.3641 4.2176L22.016 6.09644C22.1167 6.16777 22.0694 6.32176 21.9448 6.32854L7.9479 7.08977C7.52431 7.11281 7.1062 6.98837 6.7694 6.73901L4.82467 5.2992ZM7.29139 9.4762C7.29139 9.02148 7.65875 8.64587 8.1285 8.62029L22.9272 7.81435C23.385 7.78942 23.7704 8.1415 23.7704 8.58467V21.9489C23.7704 22.4028 23.4043 22.778 22.9355 22.8047L8.23053 23.6414C7.72103 23.6704 7.29139 23.2789 7.29139 22.7856V9.4762Z" fill="black"/>
</g>
<defs>
<clipPath id="clip0_2864_2019">
<rect width="28" height="28" fill="white"/>
</clipPath>
</defs>
</svg>
