<svg width="34" height="43" viewBox="0 0 34 43" fill="none" xmlns="http://www.w3.org/2000/svg">
<path d="M33.2174 6.57197V41.4665C33.2174 42.2935 32.5426 42.9681 31.7155 42.9681H4.02688C3.19971 42.9681 2.5249 42.2935 2.5249 41.4665V1.50154C2.5249 0.674607 3.19971 0 4.02688 0H26.6327L33.2174 6.57197Z" fill="#F8FAFB"/>
<path d="M33.2175 6.57197V41.4665C33.2175 42.2935 32.5427 42.9681 31.7155 42.9681H29.5714C30.3986 42.9681 31.0734 42.2935 31.0734 41.4665V6.57197L24.4995 0H26.6436L33.2175 6.57197Z" fill="#E5E5E5"/>
<path d="M33.2176 6.57197H28.1348C27.3076 6.57197 26.6328 5.89737 26.6328 5.07043V0L33.2176 6.57197Z" fill="#CECECE"/>
<path d="M26.8722 20.347H9.04444C8.44583 20.347 7.95605 19.8574 7.95605 19.259C7.95605 18.6605 8.44583 18.1709 9.04444 18.1709H26.8722C27.4708 18.1709 27.9606 18.6605 27.9606 19.259C27.9606 19.8683 27.4817 20.347 26.8722 20.347Z" fill="#CECECE"/>
<path d="M26.8722 25.9291H9.04444C8.44583 25.9291 7.95605 25.4394 7.95605 24.841C7.95605 24.2426 8.44583 23.7529 9.04444 23.7529H26.8722C27.4708 23.7529 27.9606 24.2426 27.9606 24.841C27.9606 25.4503 27.4817 25.9291 26.8722 25.9291Z" fill="#CECECE"/>
<path d="M26.8722 31.5111H9.04444C8.44583 31.5111 7.95605 31.0215 7.95605 30.423C7.95605 29.8246 8.44583 29.335 9.04444 29.335H26.8722C27.4708 29.335 27.9606 29.8246 27.9606 30.423C27.9606 31.0324 27.4817 31.5111 26.8722 31.5111Z" fill="#CECECE"/>
<path d="M15.0742 14.689H0V8.58489C0 8.1279 0.370046 7.74707 0.838053 7.74707H15.0742C15.5313 7.74707 15.9122 8.11702 15.9122 8.58489V13.8512C15.9122 14.3082 15.5422 14.689 15.0742 14.689Z" fill="#F55B4B"/>
<path d="M15.9122 13.7424V13.8512C15.9122 14.3082 15.5422 14.689 15.0742 14.689H0V8.58489C0 8.1279 0.370046 7.74707 0.838053 7.74707H1.26253V9.92322C1.26253 12.0341 2.9713 13.7532 5.09365 13.7532H15.9122V13.7424Z" fill="#DD4E43"/>
<path d="M0 14.6895L2.52505 17.562V14.6895H0Z" fill="#DB1B1B"/>
<path d="M4.08137 12.535V13.264H1.80664V12.535H2.36172V9.67335H1.80664V8.94434H4.08137C4.61468 8.94434 5.01738 9.06402 5.31125 9.31428C5.60511 9.56454 5.7466 9.90184 5.7466 10.3153C5.7466 10.5547 5.69218 10.7723 5.59423 10.9682C5.49627 11.164 5.36567 11.3163 5.20241 11.4143C5.03915 11.5231 4.86501 11.5884 4.65822 11.6319C4.45142 11.6754 4.20109 11.6863 3.89635 11.6863H3.48276V12.5241H4.08137V12.535ZM3.48276 10.9682H3.64602C4.02695 10.9682 4.27728 10.9029 4.38612 10.7832C4.49496 10.6635 4.54938 10.5003 4.54938 10.3153C4.54938 10.163 4.50584 10.0215 4.42965 9.91272C4.35346 9.80391 4.2664 9.73863 4.16844 9.70599C4.07049 9.68423 3.90723 9.66247 3.67867 9.66247H3.47187V10.9682H3.48276Z" fill="white"/>
<path d="M6.00781 13.264V12.535H6.66084V9.67335H6.00781V8.94434H8.05399C8.48934 8.94434 8.82674 8.9661 9.09883 9.0205C9.36005 9.0749 9.61038 9.19459 9.84982 9.36868C10.0893 9.55366 10.2852 9.79304 10.4267 10.0977C10.5682 10.4024 10.6443 10.7397 10.6443 11.1096C10.6443 11.4143 10.5899 11.6972 10.492 11.9692C10.394 12.2412 10.2634 12.4588 10.111 12.6329C9.95866 12.7961 9.78452 12.9376 9.56684 13.0355C9.36005 13.1334 9.16414 13.1987 8.99 13.2314C8.81585 13.264 8.54376 13.2749 8.17371 13.2749H6.00781V13.264ZM7.79277 12.535H8.06487C8.39138 12.535 8.6526 12.4915 8.84851 12.4044C9.04442 12.3174 9.19679 12.165 9.30563 11.9583C9.42535 11.7407 9.47977 11.4687 9.47977 11.1205C9.47977 10.7941 9.42535 10.5112 9.30563 10.2827C9.18591 10.0542 9.03353 9.89096 8.82674 9.80391C8.63083 9.71687 8.36962 9.67335 8.06487 9.67335H7.79277V12.535Z" fill="white"/>
<path d="M11.145 13.264V12.535H11.7654V9.67335H11.145V8.94434H15.0197V10.2827H14.1925V9.68423H12.8973V10.6853H13.8333V11.4143H12.8973V12.535H13.5612V13.264H11.145Z" fill="white"/>
<path d="M13.42 16.7133H2.53613V14.6895H15.1288V15.0159C15.1179 15.9516 14.356 16.7133 13.42 16.7133Z" fill="#E5E5E5"/>
</svg>
