<svg width="25" height="25" viewBox="0 0 25 25" fill="none" xmlns="http://www.w3.org/2000/svg">
<path d="M20.1572 9.48242H4.83439C4.06507 9.48242 3.44141 10.1061 3.44141 10.8754V15.0544C3.44141 15.8237 4.06507 16.4474 4.83439 16.4474H20.1572C20.9266 16.4474 21.5502 15.8237 21.5502 15.0544V10.8754C21.5502 10.1061 20.9266 9.48242 20.1572 9.48242Z" stroke="white" stroke-width="1.33392" stroke-linecap="round" stroke-linejoin="round"/>
<path d="M20.1568 16.4482V22.7167C20.1568 23.0861 20.0101 23.4404 19.7488 23.7017C19.4876 23.9629 19.1333 24.1097 18.7638 24.1097H6.22697C5.85753 24.1097 5.50322 23.9629 5.24198 23.7017C4.98074 23.4404 4.83398 23.0861 4.83398 22.7167V16.4482" stroke="white" stroke-width="1.33392" stroke-linecap="round" stroke-linejoin="round"/>
<path d="M12.4941 9.48242V24.1088" stroke="white" stroke-width="1.33392" stroke-linecap="round" stroke-linejoin="round"/>
<path d="M16.6743 6L12.4954 9.48246L8.31641 6" stroke="white" stroke-width="1.33392" stroke-linecap="round" stroke-linejoin="round"/>
</svg>
