<svg width="17" height="17" viewBox="0 0 17 17" fill="none" xmlns="http://www.w3.org/2000/svg">
<path d="M15.5833 7.08333H9.91667V1.41667C9.91667 1.04094 9.76741 0.680609 9.50173 0.414932C9.23606 0.149256 8.87572 0 8.5 0C8.12428 0 7.76394 0.149256 7.49827 0.414932C7.23259 0.680609 7.08333 1.04094 7.08333 1.41667V7.08333H1.41667C1.04094 7.08333 0.680609 7.23259 0.414932 7.49827C0.149256 7.76394 0 8.12428 0 8.5C0 8.87572 0.149256 9.23606 0.414932 9.50173C0.680609 9.76741 1.04094 9.91667 1.41667 9.91667H7.08333V15.5833C7.08333 15.9591 7.23259 16.3194 7.49827 16.5851C7.76394 16.8507 8.12428 17 8.5 17C8.87572 17 9.23606 16.8507 9.50173 16.5851C9.76741 16.3194 9.91667 15.9591 9.91667 15.5833V9.91667H15.5833C15.9591 9.91667 16.3194 9.76741 16.5851 9.50173C16.8507 9.23606 17 8.87572 17 8.5C17 8.12428 16.8507 7.76394 16.5851 7.49827C16.3194 7.23259 15.9591 7.08333 15.5833 7.08333Z" fill="black"/>
</svg>
