<svg width="34" height="44" viewBox="0 0 34 44" fill="none" xmlns="http://www.w3.org/2000/svg">
<path d="M33.7877 6.69014V42.1794C33.7877 43.0241 33.1004 43.7112 32.2555 43.7112H4.10152C3.25656 43.7112 2.56934 43.0241 2.56934 42.1794V1.53175C2.56934 0.687032 3.25656 0 4.10152 0H27.0956L33.7877 6.69014Z" fill="#F8FAFB"/>
<path d="M29.0662 41.1882H6.41008C5.91437 41.1882 5.50879 40.7827 5.50879 40.2872V27.9318C5.50879 22.7397 9.72231 18.5273 14.916 18.5273H29.0662C29.5619 18.5273 29.9675 18.9328 29.9675 19.4284V40.2872C29.9675 40.794 29.5619 41.1882 29.0662 41.1882Z" fill="#F9CDAF"/>
<path d="M33.7868 6.69014V42.1794C33.7868 43.0241 33.0996 43.7112 32.2547 43.7112H30.069C30.914 43.7112 31.6012 43.0241 31.6012 42.1794V6.69014L24.9092 0H27.0948L33.7868 6.69014Z" fill="#E2E1DE"/>
<path d="M33.7873 6.69014H28.6274C27.7824 6.69014 27.0952 6.00311 27.0952 5.1584V0L33.7873 6.69014Z" fill="#C9C9C9"/>
<path d="M15.3331 13.6619H0V7.45604C0 6.983 0.383047 6.61133 0.844957 6.61133H15.3331C15.8063 6.61133 16.1781 6.99427 16.1781 7.45604V12.8172C16.1894 13.279 15.8063 13.6619 15.3331 13.6619Z" fill="#E88032"/>
<path d="M16.1893 12.7041V12.8054C16.1893 13.2785 15.8063 13.6502 15.3444 13.6502H0.0112305V7.44432C0.0112305 6.97128 0.394277 6.59961 0.856187 6.59961H1.29557V8.80713C1.29557 10.9583 3.04181 12.7041 5.19363 12.7041H16.1893Z" fill="#CE6B29"/>
<path d="M0.0112305 13.6621L2.56863 16.5792V13.6621H0.0112305Z" fill="#B75F23"/>
<path d="M14.1837 15.4979H2.57959V13.6621H15.3215V14.3717C15.3103 14.9911 14.8033 15.4979 14.1837 15.4979Z" fill="#E2E1DE"/>
<path d="M26.0923 30.3756C26.0923 35.2862 22.1154 39.2621 17.2034 39.2621C12.2914 39.2621 8.31445 35.2862 8.31445 30.3756C8.31445 25.465 12.2914 21.4893 17.2034 21.4893V30.3756H26.0923Z" fill="#E88032"/>
<path d="M27.2078 29.1823H18.3188V20.2959C23.2309 20.2959 27.2078 24.2717 27.2078 29.1823Z" fill="#E88032"/>
<path d="M3.95406 11.5336V12.322H1.49805V11.5336H2.09516V8.44758H1.49805V7.65918H3.95406C4.52863 7.65918 4.968 7.79433 5.28345 8.06464C5.5989 8.33495 5.75663 8.69536 5.75663 9.14587C5.75663 9.40492 5.7003 9.64144 5.58764 9.85544C5.47498 10.0694 5.33978 10.2271 5.17079 10.3397C5.0018 10.4524 4.79901 10.5312 4.58496 10.5763C4.35964 10.6213 4.08924 10.6438 3.76253 10.6438H3.31188V11.5449H3.95406V11.5336ZM3.30062 9.84418H3.48088C3.89772 9.84418 4.16812 9.77659 4.28078 9.64144C4.40471 9.50629 4.46103 9.33734 4.46103 9.13461C4.46103 8.96567 4.41597 8.81925 4.33711 8.69536C4.25825 8.57147 4.15685 8.50389 4.05546 8.4701C3.9428 8.44757 3.7738 8.42506 3.52594 8.42506H3.30062V9.84418Z" fill="white"/>
<path d="M8.53998 11.5336V12.322H6.08398V11.5336H6.68108V8.44758H6.08398V7.65918H8.53998C9.11455 7.65918 9.55394 7.79433 9.86939 8.06464C10.1848 8.33495 10.3426 8.69536 10.3426 9.14587C10.3426 9.40492 10.2862 9.64144 10.1736 9.85544C10.0609 10.0694 9.92572 10.2271 9.75673 10.3397C9.58774 10.4524 9.38494 10.5312 9.17088 10.5763C8.94556 10.6213 8.67518 10.6438 8.34847 10.6438H7.89782V11.5449H8.53998V11.5336ZM7.88656 9.84418H8.06681C8.48366 9.84418 8.75404 9.77659 8.8667 9.64144C8.99063 9.50629 9.04696 9.33734 9.04696 9.13461C9.04696 8.96567 9.0019 8.81925 8.92303 8.69536C8.84417 8.57147 8.74278 8.50389 8.64138 8.4701C8.52872 8.44757 8.35973 8.42506 8.11188 8.42506H7.88656V9.84418Z" fill="white"/>
<path d="M11.4693 12.322V11.5336H12.1678V8.44758H11.4693V9.52881H10.6694V7.65918H14.9055V9.52881H14.1169V8.44758H13.3958V11.5336H14.0943V12.322H11.4693Z" fill="white"/>
</svg>
