<svg width="23" height="23" viewBox="0 0 23 23" fill="none" xmlns="http://www.w3.org/2000/svg">
<path d="M8.80357 13.7324H1.82143C1.36777 13.7324 1 14.1002 1 14.5539V21.536C1 21.9897 1.36777 22.3574 1.82143 22.3574H8.80357C9.25723 22.3574 9.625 21.9897 9.625 21.536V14.5539C9.625 14.1002 9.25723 13.7324 8.80357 13.7324Z" stroke="white" stroke-width="1.15" stroke-linecap="round" stroke-linejoin="round"/>
<path d="M21.536 13.7324H14.5539C14.1002 13.7324 13.7324 14.1002 13.7324 14.5539V21.536C13.7324 21.9897 14.1002 22.3574 14.5539 22.3574H21.536C21.9897 22.3574 22.3574 21.9897 22.3574 21.536V14.5539C22.3574 14.1002 21.9897 13.7324 21.536 13.7324Z" stroke="white" stroke-width="1.15" stroke-linecap="round" stroke-linejoin="round"/>
<path d="M15.1786 1H8.19643C7.74277 1 7.375 1.36777 7.375 1.82143V8.80357C7.375 9.25723 7.74277 9.625 8.19643 9.625H15.1786C15.6322 9.625 16 9.25723 16 8.80357V1.82143C16 1.36777 15.6322 1 15.1786 1Z" stroke="white" stroke-width="1.15" stroke-linecap="round" stroke-linejoin="round"/>
</svg>
