<svg width="138" height="32" viewBox="0 0 138 32" fill="none" xmlns="http://www.w3.org/2000/svg">
<path d="M45.8008 14.8477V16.8867H34.1055V14.8477H45.8008ZM41.043 9.86719V22.2891H38.875V9.86719H41.043Z" fill="white"/>
<path d="M102.801 14.8477V16.8867H91.1055V14.8477H102.801ZM98.043 9.86719V22.2891H95.875V9.86719H98.043Z" fill="white"/>
<path d="M24.3518 14.3831C25.8915 14.3831 27.1398 13.1349 27.1398 11.5951V11.4168C27.1398 9.97548 25.9714 8.80708 24.5301 8.80708C23.0888 8.80708 21.9204 9.97548 21.9204 11.4168V14.3831H24.3518ZM17.223 14.3831C18.6643 14.3831 19.8327 13.2147 19.8327 11.7734V3.60969C19.8327 2.1684 18.6643 1 17.223 1C15.7817 1 14.6133 2.1684 14.6133 3.60969V11.7734C14.6133 13.2147 15.7817 14.3831 17.223 14.3831Z" fill="#2EB67D"/>
<path d="M2.78885 16.6179C1.24908 16.6179 0.000846863 17.8661 0.000846863 19.4059V19.5842C0.000846863 21.0255 1.16924 22.1939 2.61053 22.1939C4.05182 22.1939 5.22022 21.0255 5.22022 19.5842V16.6179H2.78885ZM9.91766 16.6179C8.47637 16.6179 7.30797 17.7863 7.30797 19.2276V27.3913C7.30797 28.8326 8.47637 30.001 9.91766 30.001C11.3589 30.001 12.5273 28.8326 12.5273 27.3913V19.2276C12.5273 17.7863 11.3589 16.6179 9.91766 16.6179Z" fill="#E01E5A"/>
<path d="M14.6146 27.3903C14.6146 28.8315 15.7829 29.9998 17.224 29.9998C18.6652 29.9998 19.8335 28.8315 19.8335 27.3903L19.8335 27.2115C19.8335 25.6716 18.5852 24.4233 17.0453 24.4233L14.6146 24.4233L14.6146 27.3903ZM14.6146 19.4045C14.6146 20.9444 15.8629 22.1927 17.4028 22.1927L24.3524 22.1927C25.8923 22.1927 27.1406 20.9444 27.1406 19.4045C27.1406 17.8645 25.8923 16.6162 24.3524 16.6162L17.4028 16.6162C15.8629 16.6162 14.6146 17.8645 14.6146 19.4045Z" fill="#ECB22E"/>
<path d="M12.526 3.60968C12.526 2.16852 11.3578 1.00022 9.91659 1.00022C8.47542 1.00022 7.30713 2.16852 7.30713 3.60969L7.30713 3.78847C7.30713 5.32837 8.55546 6.57671 10.0954 6.57671L12.526 6.57671L12.526 3.60968ZM12.526 11.5955C12.526 10.0556 11.2777 8.8073 9.73781 8.8073L2.78824 8.8073C1.24834 8.8073 1.77074e-07 10.0556 1.14073e-07 11.5955C5.10722e-08 13.1355 1.24834 14.3838 2.78824 14.3838L9.73781 14.3838C11.2777 14.3838 12.526 13.1355 12.526 11.5955Z" fill="#36C5F0"/>
<g clip-path="url(#clip0_2862_2438)">
<path fill-rule="evenodd" clip-rule="evenodd" d="M115.001 27.5656L111.992 23.8165C111.268 22.9145 110.875 21.8053 110.875 20.6636V7.08811C110.875 5.37806 112.243 3.9591 114.008 3.8386L127.966 2.88566C128.98 2.81643 129.987 3.08595 130.82 3.64912L135.724 6.96467C136.602 7.55817 137.125 8.52836 137.125 9.56372V24.9978C137.125 26.6713 135.78 28.0569 134.052 28.1633L118.56 29.1168C117.181 29.2017 115.848 28.6207 115.001 27.5656Z" fill="white"/>
<path d="M119.842 13.8807V13.703C119.842 13.2524 120.202 12.8788 120.667 12.8477L124.055 12.6216L128.739 19.5199V13.4655L127.534 13.3047V13.2203C127.534 12.7645 127.903 12.3884 128.374 12.3642L131.456 12.2063V12.6499C131.456 12.8581 131.301 13.0362 131.089 13.0721L130.347 13.1976V23.0026L129.416 23.3227C128.639 23.5901 127.773 23.3038 127.328 22.6321L122.78 15.7694V22.3194L124.18 22.5873L124.16 22.7172C124.099 23.1239 123.748 23.4315 123.323 23.4504L119.842 23.6053C119.796 23.168 120.123 22.7767 120.576 22.7292L121.034 22.6811V13.9477L119.842 13.8807Z" fill="black"/>
<path fill-rule="evenodd" clip-rule="evenodd" d="M128.09 4.59526L114.133 5.5482C113.297 5.60528 112.648 6.27742 112.648 7.08744V20.663C112.648 21.4241 112.91 22.1635 113.393 22.7649L116.403 26.5139C116.889 27.1201 117.655 27.4539 118.447 27.4051L133.938 26.4515C134.732 26.4026 135.35 25.766 135.35 24.9971V9.56305C135.35 9.08735 135.11 8.64158 134.707 8.3689L129.803 5.05334C129.303 4.71544 128.698 4.55372 128.09 4.59526ZM114.825 7.2992C114.631 7.15548 114.723 6.85606 114.967 6.83857L128.184 5.89055C128.605 5.86034 129.024 5.97631 129.364 6.2176L132.016 8.09644C132.117 8.16777 132.069 8.32176 131.945 8.32854L117.948 9.08977C117.524 9.11281 117.106 8.98837 116.769 8.73901L114.825 7.2992ZM117.291 11.4762C117.291 11.0215 117.659 10.6459 118.128 10.6203L132.927 9.81435C133.385 9.78942 133.77 10.1415 133.77 10.5847V23.9489C133.77 24.4028 133.404 24.778 132.936 24.8047L118.231 25.6414C117.721 25.6704 117.291 25.2789 117.291 24.7856V11.4762Z" fill="black"/>
</g>
<path d="M54 11.6C54 8.23969 54 6.55953 54.654 5.27606C55.2292 4.14708 56.1471 3.2292 57.2761 2.65396C58.5595 2 60.2397 2 63.6 2H72.4C75.7603 2 77.4405 2 78.7239 2.65396C79.8529 3.2292 80.7708 4.14708 81.346 5.27606C82 6.55953 82 8.23969 82 11.6V20.4C82 23.7603 82 25.4405 81.346 26.7239C80.7708 27.8529 79.8529 28.7708 78.7239 29.346C77.4405 30 75.7603 30 72.4 30H63.6C60.2397 30 58.5595 30 57.2761 29.346C56.1471 28.7708 55.2292 27.8529 54.654 26.7239C54 25.4405 54 23.7603 54 20.4V11.6Z" fill="#4087FC"/>
<path d="M60.2667 10C59.5671 10 59 10.6396 59 11.4286V18.3571C59 20.369 60.4461 22 62.23 22L69.7333 21.9286C70.4329 21.9286 71 21.289 71 20.5V13.5C71 11.4881 69.2839 10 67.5 10L60.2667 10Z" fill="white"/>
<path d="M72.7122 12.7276C72.2596 13.1752 72 13.8211 72 14.5V17.3993C72 18.0782 72.2596 18.7242 72.7122 19.1717L75.5288 21.6525C76.1019 22.2191 77 21.7601 77 20.9005V11.1352C77 10.2755 76.1019 9.81654 75.5288 10.3832L72.7122 12.7276Z" fill="white"/>
<defs>
<clipPath id="clip0_2862_2438">
<rect width="28" height="28" fill="white" transform="translate(110 2)"/>
</clipPath>
</defs>
</svg>
