<svg width="23" height="23" viewBox="0 0 23 23" fill="none" xmlns="http://www.w3.org/2000/svg">
<g clip-path="url(#clip0_3198_609)">
<path d="M11.502 13.9658V22.1801" stroke="white" stroke-width="1.64286" stroke-linecap="round" stroke-linejoin="round"/>
<path d="M7.39258 22.1787H15.6069" stroke="white" stroke-width="1.64286" stroke-linecap="round" stroke-linejoin="round"/>
<path d="M5.75084 9.03725C4.4437 9.03725 3.1901 8.51799 2.26581 7.5937C1.34152 6.66942 0.822266 5.41582 0.822266 4.10868V2.46582H6.57227V9.03725H5.75084Z" stroke="white" stroke-width="1.64286" stroke-linecap="round" stroke-linejoin="round"/>
<path d="M17.2511 9.03725C18.5583 9.03725 19.8119 8.51799 20.7361 7.5937C21.6604 6.66942 22.1797 5.41582 22.1797 4.10868V2.46582H16.4297V9.03725H17.2511Z" stroke="white" stroke-width="1.64286" stroke-linecap="round" stroke-linejoin="round"/>
<path d="M16.4294 9.03655C16.4294 10.3437 15.9102 11.5973 14.9859 12.5216C14.0616 13.4459 12.808 13.9651 11.5008 13.9651C10.1937 13.9651 8.9401 13.4459 8.01581 12.5216C7.09152 11.5973 6.57227 10.3437 6.57227 9.03655V0.822266H16.4294V9.03655Z" stroke="white" stroke-width="1.64286" stroke-linecap="round" stroke-linejoin="round"/>
</g>
<defs>
<clipPath id="clip0_3198_609">
<rect width="23" height="23" fill="white"/>
</clipPath>
</defs>
</svg>
