<svg width="25" height="25" viewBox="0 0 25 25" fill="none" xmlns="http://www.w3.org/2000/svg">
<g clip-path="url(#clip0_1813_5137)">
<path d="M24.6949 23.223L18.4772 17.0053C20.1716 14.933 21.0047 12.2887 20.8041 9.61941C20.6036 6.95011 19.3847 4.46 17.3997 2.66416C15.4147 0.868314 12.8153 -0.0958716 10.1393 -0.0289634C7.46336 0.0379447 4.91545 1.13083 3.02265 3.02363C1.12985 4.91643 0.0369681 7.46434 -0.02994 10.1403C-0.0968482 12.8163 0.867338 15.4157 2.66318 17.4007C4.45903 19.3857 6.94913 20.6046 9.61843 20.8051C12.2877 21.0057 14.932 20.1726 17.0043 18.4782L23.222 24.6959C23.4185 24.8857 23.6816 24.9907 23.9547 24.9883C24.2278 24.9859 24.4891 24.8764 24.6822 24.6832C24.8754 24.4901 24.9849 24.2288 24.9873 23.9557C24.9897 23.6826 24.8847 23.4195 24.6949 23.223ZM10.4168 18.7511C8.76863 18.7511 7.15746 18.2624 5.78705 17.3467C4.41664 16.431 3.34854 15.1295 2.71781 13.6068C2.08708 12.0841 1.92205 10.4085 2.24359 8.79203C2.56514 7.17552 3.35881 5.69066 4.52425 4.52523C5.68969 3.35979 7.17455 2.56611 8.79105 2.24457C10.4076 1.92303 12.0831 2.08806 13.6058 2.71879C15.1286 3.34952 16.43 4.41762 17.3457 5.78803C18.2614 7.15844 18.7501 8.7696 18.7501 10.4178C18.7477 12.6272 17.8689 14.7453 16.3066 16.3076C14.7444 17.8699 12.6262 18.7486 10.4168 18.7511Z" fill="black" fill-opacity="0.6"/>
</g>
<defs>
<clipPath id="clip0_1813_5137">
<rect width="25" height="25" fill="white"/>
</clipPath>
</defs>
</svg>
