<svg width="26" height="32" viewBox="0 0 26 32" fill="none" xmlns="http://www.w3.org/2000/svg">
<path d="M0.984396 11.8388C0.673672 11.6825 0.472946 11.613 0.288342 11.3904C0.103737 11.1678 2.86102e-05 10.8658 2.86102e-05 10.551C2.86102e-05 10.2361 0.103737 9.93419 0.288342 9.71157C0.472946 9.48893 0.535246 9.35554 0.984396 9.19656C1.43355 9.03758 23.2705 0.128004 23.2705 0.128004C23.619 -0.0158784 23.9939 -0.0389815 24.3528 0.0613205C24.7116 0.161623 25.0399 0.381307 25.3003 0.695404C25.5608 1.0095 25.7429 1.40541 25.8261 1.83814C25.9093 2.27087 25.8901 2.72306 25.7708 3.14331C25.7708 3.14331 18.214 29.6828 18.1217 30.0436C18.0294 30.4044 17.9103 30.6604 17.7257 30.8831C17.5411 31.1057 17.2907 31.2308 17.0296 31.2308C16.7685 31.2308 16.5182 31.1057 16.3336 30.8831C16.149 30.6604 16.1068 30.5343 15.9684 30.0436C15.83 29.553 12.1078 16.6053 12.1078 16.6053C12.1078 16.6053 1.29512 11.9952 0.984396 11.8388Z" fill="#9013FE"/>
</svg>
