<svg width="32" height="32" viewBox="0 0 32 32" fill="none" xmlns="http://www.w3.org/2000/svg">
<circle cx="16" cy="16" r="16" fill="#D9D9D9"/>
<g clip-path="url(#clip0_1714_4118)">
<path d="M21.0116 9.57227H10.7159C10.2608 9.57227 9.82439 9.75305 9.50259 10.0749C9.18079 10.3967 9 10.8331 9 11.2882V22.1558H22.7275V11.2882C22.7275 10.8331 22.5468 10.3967 22.225 10.0749C21.9031 9.75305 21.4667 9.57227 21.0116 9.57227ZM10.7159 10.7162H21.0116C21.1633 10.7162 21.3088 10.7765 21.416 10.8838C21.5233 10.991 21.5836 11.1365 21.5836 11.2882V11.6697L17.0775 16.1764C16.7552 16.4974 16.3187 16.6777 15.8638 16.6777C15.4088 16.6777 14.9724 16.4974 14.65 16.1764L10.144 11.6697V11.2882C10.144 11.1365 10.2042 10.991 10.3115 10.8838C10.4188 10.7765 10.5642 10.7162 10.7159 10.7162ZM10.144 21.0119V13.2901L13.8412 16.9851C14.3781 17.5207 15.1055 17.8214 15.8638 17.8214C16.6221 17.8214 17.3494 17.5207 17.8863 16.9851L21.5836 13.2901V21.0119H10.144Z" fill="black"/>
</g>
<defs>
<clipPath id="clip0_1714_4118">
<rect width="13.7275" height="13.7275" fill="white" transform="translate(9 9)"/>
</clipPath>
</defs>
</svg>
