<svg width="25" height="25" viewBox="0 0 25 25" fill="none" xmlns="http://www.w3.org/2000/svg">
<path d="M5.42188 12.5011V7.84804C5.43569 6.9334 5.62985 6.03048 5.99323 5.19101C6.3566 4.35154 6.88205 3.59202 7.53946 2.95598C8.19688 2.31993 8.97334 1.81985 9.82435 1.4844C10.6754 1.14895 11.5842 0.98472 12.4988 1.00112V1.00112C13.4134 0.98472 14.3222 1.14895 15.1732 1.4844C16.0243 1.81985 16.8007 2.31993 17.4581 2.95598C18.1155 3.59202 18.641 4.35154 19.0044 5.19101C19.3677 6.03048 19.5619 6.9334 19.5757 7.84804V12.5011" stroke="white" stroke-width="1.18966" stroke-linecap="round" stroke-linejoin="round"/>
<path d="M2.76923 9.84668H4.53846C4.77307 9.84668 4.99808 9.93988 5.16398 10.1058C5.32987 10.2717 5.42308 10.4967 5.42308 10.7313V16.039C5.42308 16.2736 5.32987 16.4986 5.16398 16.6645C4.99808 16.8304 4.77307 16.9236 4.53846 16.9236H2.76923C2.3 16.9236 1.84999 16.7372 1.5182 16.4054C1.1864 16.0736 1 15.6236 1 15.1544V11.6159C1 11.1467 1.1864 10.6967 1.5182 10.3649C1.84999 10.0331 2.3 9.84668 2.76923 9.84668V9.84668Z" stroke="white" stroke-width="1.18966" stroke-linecap="round" stroke-linejoin="round"/>
<path d="M22.2308 16.9238H20.4615C20.2269 16.9238 20.0019 16.8306 19.836 16.6647C19.6701 16.4988 19.5769 16.2738 19.5769 16.0392V10.7315C19.5769 10.4969 19.6701 10.2719 19.836 10.106C20.0019 9.94011 20.2269 9.84691 20.4615 9.84691H22.2308C22.7 9.84691 23.15 10.0333 23.4818 10.3651C23.8136 10.6969 24 11.1469 24 11.6161V15.1546C24 15.6238 23.8136 16.0738 23.4818 16.4056C23.15 16.7374 22.7 16.9238 22.2308 16.9238V16.9238Z" stroke="white" stroke-width="1.18966" stroke-linecap="round" stroke-linejoin="round"/>
<path d="M16.0371 21.7888C16.9756 21.7888 17.8756 21.416 18.5392 20.7524C19.2028 20.0888 19.5756 19.1888 19.5756 18.2503V14.2695" stroke="white" stroke-width="1.18966" stroke-linecap="round" stroke-linejoin="round"/>
<path d="M16.0379 21.7887C16.0379 22.3752 15.8049 22.9377 15.3901 23.3525C14.9754 23.7672 14.4129 24.0002 13.8263 24.0002H11.1725C10.5859 24.0002 10.0234 23.7672 9.60868 23.3525C9.19394 22.9377 8.96094 22.3752 8.96094 21.7887C8.96094 21.2021 9.19394 20.6396 9.60868 20.2249C10.0234 19.8101 10.5859 19.5771 11.1725 19.5771H13.8263C14.4129 19.5771 14.9754 19.8101 15.3901 20.2249C15.8049 20.6396 16.0379 21.2021 16.0379 21.7887Z" stroke="white" stroke-width="1.18966" stroke-linecap="round" stroke-linejoin="round"/>
</svg>
