<svg width="22" height="22" viewBox="0 0 22 22" fill="none" xmlns="http://www.w3.org/2000/svg">
<path d="M7.85603 9.42885C9.80875 9.42885 11.3917 7.84586 11.3917 5.89314C11.3917 3.94042 9.80875 2.35742 7.85603 2.35742C5.90331 2.35742 4.32031 3.94042 4.32031 5.89314C4.32031 7.84586 5.90331 9.42885 7.85603 9.42885Z" stroke="white" stroke-width="1.57143" stroke-linecap="round" stroke-linejoin="round"/>
<path d="M14.928 21.2151H0.785156V19.6437C0.785156 17.7682 1.53018 15.9696 2.85633 14.6434C4.18248 13.3173 5.98113 12.5723 7.85658 12.5723C9.73204 12.5723 11.5307 13.3173 12.8568 14.6434C14.183 15.9696 14.928 17.7682 14.928 19.6437V21.2151Z" stroke="white" stroke-width="1.57143" stroke-linecap="round" stroke-linejoin="round"/>
<path d="M14.1406 2.35742C15.0784 2.35742 15.9777 2.72993 16.6408 3.39301C17.3038 4.05608 17.6763 4.95541 17.6763 5.89314C17.6763 6.83087 17.3038 7.73019 16.6408 8.39326C15.9777 9.05634 15.0784 9.42885 14.1406 9.42885" stroke="white" stroke-width="1.57143" stroke-linecap="round" stroke-linejoin="round"/>
<path d="M16.6543 12.8701C17.9929 13.3793 19.1453 14.283 19.9591 15.4615C20.7728 16.6401 21.2095 18.0379 21.2114 19.4701V21.2144H18.8543" stroke="white" stroke-width="1.57143" stroke-linecap="round" stroke-linejoin="round"/>
</svg>
