<svg width="38" height="19" viewBox="0 0 38 19" fill="none" xmlns="http://www.w3.org/2000/svg">
<path d="M0 9.5C0 4.25329 4.25329 0 9.5 0H28.5C33.7467 0 38 4.25329 38 9.5C38 14.7467 33.7467 19 28.5 19H9.5C4.25329 19 0 14.7467 0 9.5Z" fill="black" fill-opacity="0.19"/>
<circle cx="9.50002" cy="9.50033" r="6.33333" fill="white"/>
<path d="M32.5887 12.5088C32.9864 12.8759 32.9864 13.5183 32.5887 13.8854C32.4051 14.069 32.1604 14.1607 31.9157 14.1607C31.6404 14.1607 31.3956 14.069 31.2121 13.8854L28 10.6733L24.7573 13.8854C24.5738 14.069 24.3291 14.1607 24.0843 14.1607C23.809 14.1607 23.5643 14.069 23.3807 13.8854C22.983 13.5183 22.983 12.8759 23.3807 12.5088L26.5928 9.26613L23.3807 6.05405C22.983 5.68696 22.983 5.04454 23.3807 4.67744C23.7478 4.27976 24.3902 4.27976 24.7573 4.67744L28 7.88952L31.2121 4.67744C31.5792 4.27976 32.2216 4.27976 32.5887 4.67744C32.9864 5.04454 32.9864 5.68696 32.5887 6.05405L29.3766 9.29672L32.5887 12.5088Z" fill="white"/>
</svg>
