<svg width="38" height="19" viewBox="0 0 38 19" fill="none" xmlns="http://www.w3.org/2000/svg">
<path d="M0 9.5C0 4.25329 4.25329 0 9.5 0H28.5C33.7467 0 38 4.25329 38 9.5C38 14.7467 33.7467 19 28.5 19H9.5C4.25329 19 0 14.7467 0 9.5Z" fill="#16A34A"/>
<circle cx="28.5" cy="9.50033" r="6.33333" fill="white"/>
<path d="M15.1745 7.11816C15.4559 7.37793 15.4559 7.83252 15.1745 8.09228L9.63281 13.634C9.37305 13.9154 8.91846 13.9154 8.65869 13.634L5.88786 10.8631C5.60645 10.6034 5.60645 10.1488 5.88786 9.889C6.14762 9.60758 6.60221 9.60758 6.86198 9.889L9.13493 12.1619L14.2004 7.11816C14.4601 6.83675 14.9147 6.83675 15.1745 7.11816Z" fill="white"/>
</svg>
