<svg width="28" height="25" viewBox="0 0 28 25" fill="none" xmlns="http://www.w3.org/2000/svg">
<path d="M3.75189 3.16767L0 6.56852L1.29819 8.20312C1.87631 7.84375 3.03256 6.90625 3.54819 6.90625C4.70444 6.90625 5.74387 10.0391 6.73569 13.4844C7.62631 16.5781 8.54819 24.2656 12.7982 24.2656C17.6888 24.2656 27.9701 11.0625 27.9701 5.18622C27.9701 3.05994 27.5482 0 23.3138 0C18.7763 0 16.5439 4.37901 15.9949 6.56852C16.3899 6.30521 17.465 6.12968 18.0574 6.12968C20.4709 6.12968 19.9554 8.63134 19.6263 9.64062C19.2972 10.6499 16.7669 15.5643 15.4025 15.5643C13.735 15.5643 12.7477 8.32377 12.265 5.18622C11.7823 2.04867 10.5317 0.33728 8.62279 0.33728C7.0957 0.33728 4.73924 2.22421 3.75189 3.16767Z" fill="#1D7DF1"/>
</svg>
